SplineFontDB: 3.2
FontName: Code128
FullName: Code128
FamilyName: Code128
Weight: Book
Version: 2.00 July 25, 2006
ItalicAngle: 0
UnderlinePosition: 0
UnderlineWidth: 1
Ascent: 3276
Descent: 820
InvalidEm: 0
sfntRevision: 0x00020000
LayerCount: 2
Layer: 0 1 "Back" 1
Layer: 1 1 "Fore" 0
XUID: [1021 582 -163733782 4172]
StyleMap: 0x0040
FSType: 0
OS2Version: 1
OS2_WeightWidthSlopeOnly: 0
OS2_UseTypoMetrics: 0
CreationTime: 1153868401
ModificationTime: 1153998099
PfmFamily: 81
TTFWeight: 400
TTFWidth: 5
LineGap: 0
VLineGap: 0
Panose: 5 1 1 1 1 1 1 1 1 1
OS2TypoAscent: 4352
OS2TypoAOffset: 0
OS2TypoDescent: 0
OS2TypoDOffset: 0
OS2TypoLinegap: 0
OS2WinAscent: 4352
OS2WinAOffset: 0
OS2WinDescent: 0
OS2WinDOffset: 0
HheadAscent: 4352
HheadAOffset: 0
HheadDescent: 0
HheadDOffset: 0
OS2SubXSize: 1230
OS2SubYSize: 1230
OS2SubXOff: 0
OS2SubYOff: 790
OS2SupXSize: 1230
OS2SupYSize: 1230
OS2SupXOff: 0
OS2SupYOff: 790
OS2StrikeYSize: 1
OS2StrikeYPos: 0
OS2FamilyClass: 3072
OS2Vendor: 'NONE'
OS2CodePages: 80000000.00000000
OS2UnicodeRanges: 00000000.00000000.00000000.00000000
DEI: 91125
ShortTable: maxp 16
  1
  0
  110
  24
  6
  0
  0
  2
  16
  47
  70
  0
  293
  0
  0
  0
EndShort
LangName: 1033 "" "" "Regular" "Code128:Version 2.00" "" "Version 2.00 July 25, 2006" "" "" "" "Aleksandras Novikovas" "Font for creating barcodes of type Code 128." "" "" "BSD license"
LangName: 1027 "" "" "Normal"
LangName: 1029 "" "" "oby+AQ0A-ejn+AOkA"
LangName: 1030 "" "" "normal"
LangName: 1031 "" "" "Standard"
LangName: 1032 "" "" "+A5oDsQO9A78DvQO5A7oDrAAA"
LangName: 1034 "" "" "Normal"
LangName: 1035 "" "" "Normaali"
LangName: 1036 "" "" "Normal"
LangName: 1038 "" "" "Norm+AOEA-l"
LangName: 1040 "" "" "Normale"
LangName: 1043 "" "" "Standaard"
LangName: 1044 "" "" "Normal"
LangName: 1045 "" "" "Normalny"
LangName: 1046 "" "" "Normal"
LangName: 1049 "" "" "+BB4EMQRLBEcEPQRLBDkA"
LangName: 1051 "" "" "Norm+AOEA-lne"
LangName: 1053 "" "" "Normal"
LangName: 1055 "" "" "Normal"

StartChar: .notdef
Encoding: 255 1 0
AltUni2: 0002c7.ffffffff.0 0002db.ffffffff.0 0002dd.ffffffff.0 0000b8.ffffffff.0 0002da.ffffffff.0 0002d9.ffffffff.0 0002d8.ffffffff.0 0000af.ffffffff.0 0002dc.ffffffff.0 0002c6.ffffffff.0 000131.ffffffff.0 0000d9.ffffffff.0 0000db.ffffffff.0 0000da.ffffffff.0 0000d2.ffffffff.0 0000d4.ffffffff.0 0000d3.ffffffff.0 0000cc.ffffffff.0 0000cf.ffffffff.0 0000ce.ffffffff.0 0000cd.ffffffff.0 0000c8.ffffffff.0 0000cb.ffffffff.0 0000c1.ffffffff.0 0000ca.ffffffff.0 0000c2.ffffffff.0 002030.ffffffff.0 00201e.ffffffff.0 00201a.ffffffff.0 0000b7.ffffffff.0 002021.ffffffff.0 00fb02.ffffffff.0 00fb01.ffffffff.0 00203a.ffffffff.0 002039.ffffffff.0 0000a4.ffffffff.0 002044.ffffffff.0 000178.ffffffff.0 0000ff.ffffffff.0 0025ca.ffffffff.0 0000f7.ffffffff.0 002019.ffffffff.0 002018.ffffffff.0 00201d.ffffffff.0 00201c.ffffffff.0 002014.ffffffff.0 002013.ffffffff.0 000153.ffffffff.0 000152.ffffffff.0 0000d5.ffffffff.0 0000c3.ffffffff.0 0000c0.ffffffff.0 0000a0.ffffffff.0 002026.ffffffff.0 0000bb.ffffffff.0 0000ab.ffffffff.0 002206.ffffffff.0 002248.ffffffff.0 000192.ffffffff.0 00221a.ffffffff.0 0000ac.ffffffff.0 0000a1.ffffffff.0 0000bf.ffffffff.0 0000f8.ffffffff.0 0000e6.ffffffff.0 002126.ffffffff.0 0000ba.ffffffff.0 0000aa.ffffffff.0 00222b.ffffffff.0 0003c0.ffffffff.0 00220f.ffffffff.0 002211.ffffffff.0 002202.ffffffff.0 0000b5.ffffffff.0 0000a5.ffffffff.0 002265.ffffffff.0 002264.ffffffff.0 0000b1.ffffffff.0 00221e.ffffffff.0 0000d8.ffffffff.0 0000c6.ffffffff.0 002260.ffffffff.0 0000a8.ffffffff.0 0000b4.ffffffff.0 002122.ffffffff.0 0000a9.ffffffff.0 0000ae.ffffffff.0 0000df.ffffffff.0 0000b6.ffffffff.0 002022.ffffffff.0 0000a7.ffffffff.0 0000a3.ffffffff.0 0000a2.ffffffff.0 0000b0.ffffffff.0 002020.ffffffff.0 0000fc.ffffffff.0 0000fb.ffffffff.0 0000f9.ffffffff.0 0000fa.ffffffff.0 0000f5.ffffffff.0 0000f6.ffffffff.0 0000f4.ffffffff.0 0000f2.ffffffff.0 0000f3.ffffffff.0 0000f1.ffffffff.0 0000ef.ffffffff.0 0000ee.ffffffff.0 0000ec.ffffffff.0 0000ed.ffffffff.0 0000eb.ffffffff.0 0000ea.ffffffff.0 0000e8.ffffffff.0 0000e9.ffffffff.0 0000e7.ffffffff.0 0000e5.ffffffff.0 0000e3.ffffffff.0 00001f.ffffffff.0 00001e.ffffffff.0 00001c.ffffffff.0 00001b.ffffffff.0 00001a.ffffffff.0 000019.ffffffff.0 000018.ffffffff.0 000017.ffffffff.0 000016.ffffffff.0 000015.ffffffff.0 000014.ffffffff.0 000013.ffffffff.0 000012.ffffffff.0 000011.ffffffff.0 000010.ffffffff.0 00000f.ffffffff.0 00000e.ffffffff.0 00000c.ffffffff.0 00000b.ffffffff.0 00000a.ffffffff.0 000007.ffffffff.0 000006.ffffffff.0 000005.ffffffff.0 000004.ffffffff.0 000003.ffffffff.0 000002.ffffffff.0 0002c7.ffffffff.0 0002db.ffffffff.0 0002dd.ffffffff.0 0000b8.ffffffff.0 0002da.ffffffff.0 0002d9.ffffffff.0 0002d8.ffffffff.0 0000af.ffffffff.0 0002dc.ffffffff.0 0002c6.ffffffff.0 000131.ffffffff.0 0000d9.ffffffff.0 0000db.ffffffff.0 0000da.ffffffff.0 0000d2.ffffffff.0 00f8ff.ffffffff.0 0000d4.ffffffff.0 0000d3.ffffffff.0 0000cc.ffffffff.0 0000cf.ffffffff.0 0000ce.ffffffff.0 0000cd.ffffffff.0 0000c8.ffffffff.0 0000cb.ffffffff.0 0000c1.ffffffff.0 0000ca.ffffffff.0 0000c2.ffffffff.0 002030.ffffffff.0 00201e.ffffffff.0 00201a.ffffffff.0 0000b7.ffffffff.0 002021.ffffffff.0 00fb02.ffffffff.0 00fb01.ffffffff.0 00203a.ffffffff.0 002039.ffffffff.0 0020ac.ffffffff.0 002044.ffffffff.0 000178.ffffffff.0 0000ff.ffffffff.0 0025ca.ffffffff.0 0000f7.ffffffff.0 002019.ffffffff.0 002018.ffffffff.0 00201d.ffffffff.0 00201c.ffffffff.0 002014.ffffffff.0 002013.ffffffff.0 000153.ffffffff.0 000152.ffffffff.0 0000d5.ffffffff.0 0000c3.ffffffff.0 0000c0.ffffffff.0 0000a0.ffffffff.0 002026.ffffffff.0 0000bb.ffffffff.0 0000ab.ffffffff.0 002206.ffffffff.0 002248.ffffffff.0 000192.ffffffff.0 00221a.ffffffff.0 0000ac.ffffffff.0 0000a1.ffffffff.0 0000bf.ffffffff.0 0000f8.ffffffff.0 0000e6.ffffffff.0 0003a9.ffffffff.0 0000ba.ffffffff.0 0000aa.ffffffff.0 00222b.ffffffff.0 0003c0.ffffffff.0 00220f.ffffffff.0 002211.ffffffff.0 002202.ffffffff.0 0000b5.ffffffff.0 0000a5.ffffffff.0 002265.ffffffff.0 002264.ffffffff.0 0000b1.ffffffff.0 00221e.ffffffff.0 0000d8.ffffffff.0 0000c6.ffffffff.0 002260.ffffffff.0 0000a8.ffffffff.0 0000b4.ffffffff.0 002122.ffffffff.0 0000a9.ffffffff.0 0000ae.ffffffff.0 0000df.ffffffff.0 0000b6.ffffffff.0 002022.ffffffff.0 0000a7.ffffffff.0 0000a3.ffffffff.0 0000a2.ffffffff.0 0000b0.ffffffff.0 002020.ffffffff.0 0000fc.ffffffff.0 0000fb.ffffffff.0 0000f9.ffffffff.0 0000fa.ffffffff.0 0000f5.ffffffff.0 0000f6.ffffffff.0 0000f4.ffffffff.0 0000f2.ffffffff.0 0000f3.ffffffff.0 0000f1.ffffffff.0 0000ef.ffffffff.0 0000ee.ffffffff.0 0000ec.ffffffff.0 0000ed.ffffffff.0 0000eb.ffffffff.0 0000ea.ffffffff.0 0000e8.ffffffff.0 0000e9.ffffffff.0 0000e7.ffffffff.0 0000e5.ffffffff.0 0000e3.ffffffff.0 00001f.ffffffff.0 00001e.ffffffff.0 00001c.ffffffff.0 00001b.ffffffff.0 00001a.ffffffff.0 000019.ffffffff.0 000018.ffffffff.0 000017.ffffffff.0 000016.ffffffff.0 000015.ffffffff.0 000014.ffffffff.0 000013.ffffffff.0 000012.ffffffff.0 000011.ffffffff.0 000010.ffffffff.0 00000f.ffffffff.0 00000e.ffffffff.0 00000c.ffffffff.0 00000b.ffffffff.0 00000a.ffffffff.0 000007.ffffffff.0 000006.ffffffff.0 000005.ffffffff.0 000004.ffffffff.0 000003.ffffffff.0 000002.ffffffff.0
Width: 1024
GlyphClass: 1
Flags: W
LayerCount: 2
Fore
SplineSet
128 0 m 1,0,-1
 128 1238 l 1,1,-1
 896 1238 l 1,2,-1
 896 0 l 1,3,-1
 128 0 l 1,0,-1
276 148 m 1,4,-1
 748 148 l 1,5,-1
 748 1090 l 1,6,-1
 276 1090 l 1,7,-1
 276 148 l 1,4,-1
EndSplineSet
EndChar

StartChar: space
Encoding: 32 9 3
AltUni2: 000020.ffffffff.0 000020.ffffffff.0
Width: 671
GlyphClass: 1
Flags: W
LayerCount: 2
Fore
SplineSet
0 62 m 1,0,-1
 0 4290 l 1,1,-1
 122 4290 l 1,2,-1
 122 62 l 1,3,-1
 0 62 l 1,0,-1
0 0 m 1,4,-1
 0 61 l 1,5,-1
 671 61 l 1,6,-1
 671 0 l 1,7,-1
 0 0 l 1,4,-1
0 4291 m 1,8,-1
 0 4352 l 1,9,-1
 671 4352 l 1,10,-1
 671 4291 l 1,11,-1
 0 4291 l 1,8,-1
183 62 m 1,12,-1
 183 4290 l 1,13,-1
 305 4290 l 1,14,-1
 305 62 l 1,15,-1
 183 62 l 1,12,-1
427 62 m 1,16,-1
 427 4290 l 1,17,-1
 549 4290 l 1,18,-1
 549 62 l 1,19,-1
 427 62 l 1,16,-1
EndSplineSet
EndChar

StartChar: exclam
Encoding: 33 33 4
Width: 671
GlyphClass: 1
Flags: W
LayerCount: 2
Fore
SplineSet
0 62 m 1,0,-1
 0 4290 l 1,1,-1
 122 4290 l 1,2,-1
 122 62 l 1,3,-1
 0 62 l 1,0,-1
0 0 m 1,4,-1
 0 61 l 1,5,-1
 671 61 l 1,6,-1
 671 0 l 1,7,-1
 0 0 l 1,4,-1
0 4291 m 1,8,-1
 0 4352 l 1,9,-1
 671 4352 l 1,10,-1
 671 4291 l 1,11,-1
 0 4291 l 1,8,-1
244 62 m 1,12,-1
 244 4290 l 1,13,-1
 366 4290 l 1,14,-1
 366 62 l 1,15,-1
 244 62 l 1,12,-1
427 62 m 1,16,-1
 427 4290 l 1,17,-1
 549 4290 l 1,18,-1
 549 62 l 1,19,-1
 427 62 l 1,16,-1
EndSplineSet
EndChar

StartChar: quotedbl
Encoding: 34 34 5
Width: 671
GlyphClass: 1
Flags: W
LayerCount: 2
Fore
SplineSet
0 62 m 1,0,-1
 0 4290 l 1,1,-1
 122 4290 l 1,2,-1
 122 62 l 1,3,-1
 0 62 l 1,0,-1
0 0 m 1,4,-1
 0 61 l 1,5,-1
 671 61 l 1,6,-1
 671 0 l 1,7,-1
 0 0 l 1,4,-1
0 4291 m 1,8,-1
 0 4352 l 1,9,-1
 671 4352 l 1,10,-1
 671 4291 l 1,11,-1
 0 4291 l 1,8,-1
244 62 m 1,12,-1
 244 4290 l 1,13,-1
 366 4290 l 1,14,-1
 366 62 l 1,15,-1
 244 62 l 1,12,-1
488 62 m 1,16,-1
 488 4290 l 1,17,-1
 610 4290 l 1,18,-1
 610 62 l 1,19,-1
 488 62 l 1,16,-1
EndSplineSet
EndChar

StartChar: numbersign
Encoding: 35 35 6
Width: 671
GlyphClass: 1
Flags: W
LayerCount: 2
Fore
SplineSet
0 62 m 1,0,-1
 0 4290 l 1,1,-1
 61 4290 l 1,2,-1
 61 62 l 1,3,-1
 0 62 l 1,0,-1
0 0 m 1,4,-1
 0 61 l 1,5,-1
 671 61 l 1,6,-1
 671 0 l 1,7,-1
 0 0 l 1,4,-1
0 4291 m 1,8,-1
 0 4352 l 1,9,-1
 671 4352 l 1,10,-1
 671 4291 l 1,11,-1
 0 4291 l 1,8,-1
183 62 m 1,12,-1
 183 4290 l 1,13,-1
 244 4290 l 1,14,-1
 244 62 l 1,15,-1
 183 62 l 1,12,-1
366 62 m 1,16,-1
 366 4290 l 1,17,-1
 488 4290 l 1,18,-1
 488 62 l 1,19,-1
 366 62 l 1,16,-1
EndSplineSet
EndChar

StartChar: dollar
Encoding: 36 36 7
Width: 671
GlyphClass: 1
Flags: W
LayerCount: 2
Fore
SplineSet
0 62 m 1,0,-1
 0 4290 l 1,1,-1
 61 4290 l 1,2,-1
 61 62 l 1,3,-1
 0 62 l 1,0,-1
0 0 m 1,4,-1
 0 61 l 1,5,-1
 671 61 l 1,6,-1
 671 0 l 1,7,-1
 0 0 l 1,4,-1
0 4291 m 1,8,-1
 0 4352 l 1,9,-1
 671 4352 l 1,10,-1
 671 4291 l 1,11,-1
 0 4291 l 1,8,-1
183 62 m 1,12,-1
 183 4290 l 1,13,-1
 244 4290 l 1,14,-1
 244 62 l 1,15,-1
 183 62 l 1,12,-1
427 62 m 1,16,-1
 427 4290 l 1,17,-1
 549 4290 l 1,18,-1
 549 62 l 1,19,-1
 427 62 l 1,16,-1
EndSplineSet
EndChar

StartChar: percent
Encoding: 37 37 8
Width: 671
GlyphClass: 1
Flags: W
LayerCount: 2
Fore
SplineSet
0 62 m 1,0,-1
 0 4290 l 1,1,-1
 61 4290 l 1,2,-1
 61 62 l 1,3,-1
 0 62 l 1,0,-1
0 0 m 1,4,-1
 0 61 l 1,5,-1
 671 61 l 1,6,-1
 671 0 l 1,7,-1
 0 0 l 1,4,-1
0 4291 m 1,8,-1
 0 4352 l 1,9,-1
 671 4352 l 1,10,-1
 671 4291 l 1,11,-1
 0 4291 l 1,8,-1
244 62 m 1,12,-1
 244 4290 l 1,13,-1
 305 4290 l 1,14,-1
 305 62 l 1,15,-1
 244 62 l 1,12,-1
427 62 m 1,16,-1
 427 4290 l 1,17,-1
 549 4290 l 1,18,-1
 549 62 l 1,19,-1
 427 62 l 1,16,-1
EndSplineSet
EndChar

StartChar: ampersand
Encoding: 38 38 9
Width: 671
GlyphClass: 1
Flags: W
LayerCount: 2
Fore
SplineSet
0 62 m 1,0,-1
 0 4290 l 1,1,-1
 61 4290 l 1,2,-1
 61 62 l 1,3,-1
 0 62 l 1,0,-1
0 0 m 1,4,-1
 0 61 l 1,5,-1
 671 61 l 1,6,-1
 671 0 l 1,7,-1
 0 0 l 1,4,-1
0 4291 m 1,8,-1
 0 4352 l 1,9,-1
 671 4352 l 1,10,-1
 671 4291 l 1,11,-1
 0 4291 l 1,8,-1
427 62 m 1,12,-1
 427 4290 l 1,13,-1
 488 4290 l 1,14,-1
 488 62 l 1,15,-1
 427 62 l 1,12,-1
183 62 m 1,16,-1
 183 4290 l 1,17,-1
 305 4290 l 1,18,-1
 305 62 l 1,19,-1
 183 62 l 1,16,-1
EndSplineSet
EndChar

StartChar: quotesingle
Encoding: 39 39 10
Width: 671
GlyphClass: 1
Flags: W
LayerCount: 2
Fore
SplineSet
0 62 m 1,0,-1
 0 4290 l 1,1,-1
 61 4290 l 1,2,-1
 61 62 l 1,3,-1
 0 62 l 1,0,-1
0 0 m 1,4,-1
 0 61 l 1,5,-1
 671 61 l 1,6,-1
 671 0 l 1,7,-1
 0 0 l 1,4,-1
0 4291 m 1,8,-1
 0 4352 l 1,9,-1
 671 4352 l 1,10,-1
 671 4291 l 1,11,-1
 0 4291 l 1,8,-1
488 62 m 1,12,-1
 488 4290 l 1,13,-1
 549 4290 l 1,14,-1
 549 62 l 1,15,-1
 488 62 l 1,12,-1
183 62 m 1,16,-1
 183 4290 l 1,17,-1
 305 4290 l 1,18,-1
 305 62 l 1,19,-1
 183 62 l 1,16,-1
EndSplineSet
EndChar

StartChar: parenleft
Encoding: 40 40 11
Width: 671
GlyphClass: 1
Flags: W
LayerCount: 2
Fore
SplineSet
0 62 m 1,0,-1
 0 4290 l 1,1,-1
 61 4290 l 1,2,-1
 61 62 l 1,3,-1
 0 62 l 1,0,-1
0 0 m 1,4,-1
 0 61 l 1,5,-1
 671 61 l 1,6,-1
 671 0 l 1,7,-1
 0 0 l 1,4,-1
0 4291 m 1,8,-1
 0 4352 l 1,9,-1
 671 4352 l 1,10,-1
 671 4291 l 1,11,-1
 0 4291 l 1,8,-1
488 62 m 1,12,-1
 488 4290 l 1,13,-1
 549 4290 l 1,14,-1
 549 62 l 1,15,-1
 488 62 l 1,12,-1
244 62 m 1,16,-1
 244 4290 l 1,17,-1
 366 4290 l 1,18,-1
 366 62 l 1,19,-1
 244 62 l 1,16,-1
EndSplineSet
EndChar

StartChar: parenright
Encoding: 41 41 12
Width: 671
GlyphClass: 1
Flags: W
LayerCount: 2
Fore
SplineSet
0 62 m 1,0,-1
 0 4290 l 1,1,-1
 122 4290 l 1,2,-1
 122 62 l 1,3,-1
 0 62 l 1,0,-1
0 0 m 1,4,-1
 0 61 l 1,5,-1
 671 61 l 1,6,-1
 671 0 l 1,7,-1
 0 0 l 1,4,-1
0 4291 m 1,8,-1
 0 4352 l 1,9,-1
 671 4352 l 1,10,-1
 671 4291 l 1,11,-1
 0 4291 l 1,8,-1
244 62 m 1,12,-1
 244 4290 l 1,13,-1
 305 4290 l 1,14,-1
 305 62 l 1,15,-1
 244 62 l 1,12,-1
427 62 m 1,16,-1
 427 4290 l 1,17,-1
 488 4290 l 1,18,-1
 488 62 l 1,19,-1
 427 62 l 1,16,-1
EndSplineSet
EndChar

StartChar: asterisk
Encoding: 42 42 13
Width: 671
GlyphClass: 1
Flags: W
LayerCount: 2
Fore
SplineSet
0 62 m 1,0,-1
 0 4290 l 1,1,-1
 122 4290 l 1,2,-1
 122 62 l 1,3,-1
 0 62 l 1,0,-1
0 0 m 1,4,-1
 0 61 l 1,5,-1
 671 61 l 1,6,-1
 671 0 l 1,7,-1
 0 0 l 1,4,-1
0 4291 m 1,8,-1
 0 4352 l 1,9,-1
 671 4352 l 1,10,-1
 671 4291 l 1,11,-1
 0 4291 l 1,8,-1
244 62 m 1,12,-1
 244 4290 l 1,13,-1
 305 4290 l 1,14,-1
 305 62 l 1,15,-1
 244 62 l 1,12,-1
488 62 m 1,16,-1
 488 4290 l 1,17,-1
 549 4290 l 1,18,-1
 549 62 l 1,19,-1
 488 62 l 1,16,-1
EndSplineSet
EndChar

StartChar: plus
Encoding: 43 43 14
Width: 671
GlyphClass: 1
Flags: W
LayerCount: 2
Fore
SplineSet
0 62 m 1,0,-1
 0 4290 l 1,1,-1
 122 4290 l 1,2,-1
 122 62 l 1,3,-1
 0 62 l 1,0,-1
0 0 m 1,4,-1
 0 61 l 1,5,-1
 671 61 l 1,6,-1
 671 0 l 1,7,-1
 0 0 l 1,4,-1
0 4291 m 1,8,-1
 0 4352 l 1,9,-1
 671 4352 l 1,10,-1
 671 4291 l 1,11,-1
 0 4291 l 1,8,-1
305 62 m 1,12,-1
 305 4290 l 1,13,-1
 366 4290 l 1,14,-1
 366 62 l 1,15,-1
 305 62 l 1,12,-1
488 62 m 1,16,-1
 488 4290 l 1,17,-1
 549 4290 l 1,18,-1
 549 62 l 1,19,-1
 488 62 l 1,16,-1
EndSplineSet
EndChar

StartChar: comma
Encoding: 44 44 15
Width: 671
GlyphClass: 1
Flags: W
LayerCount: 2
Fore
SplineSet
0 62 m 1,0,-1
 0 4290 l 1,1,-1
 61 4290 l 1,2,-1
 61 62 l 1,3,-1
 0 62 l 1,0,-1
0 0 m 1,4,-1
 0 61 l 1,5,-1
 671 61 l 1,6,-1
 671 0 l 1,7,-1
 0 0 l 1,4,-1
0 4291 m 1,8,-1
 0 4352 l 1,9,-1
 671 4352 l 1,10,-1
 671 4291 l 1,11,-1
 0 4291 l 1,8,-1
122 62 m 1,12,-1
 122 4290 l 1,13,-1
 244 4290 l 1,14,-1
 244 62 l 1,15,-1
 122 62 l 1,12,-1
366 62 m 1,16,-1
 366 4290 l 1,17,-1
 549 4290 l 1,18,-1
 549 62 l 1,19,-1
 366 62 l 1,16,-1
EndSplineSet
EndChar

StartChar: hyphen
Encoding: 45 45 16
Width: 671
GlyphClass: 1
Flags: W
LayerCount: 2
Fore
SplineSet
0 62 m 1,0,-1
 0 4290 l 1,1,-1
 61 4290 l 1,2,-1
 61 62 l 1,3,-1
 0 62 l 1,0,-1
0 0 m 1,4,-1
 0 61 l 1,5,-1
 671 61 l 1,6,-1
 671 0 l 1,7,-1
 0 0 l 1,4,-1
0 4291 m 1,8,-1
 0 4352 l 1,9,-1
 671 4352 l 1,10,-1
 671 4291 l 1,11,-1
 0 4291 l 1,8,-1
183 62 m 1,12,-1
 183 4290 l 1,13,-1
 305 4290 l 1,14,-1
 305 62 l 1,15,-1
 183 62 l 1,12,-1
366 62 m 1,16,-1
 366 4290 l 1,17,-1
 549 4290 l 1,18,-1
 549 62 l 1,19,-1
 366 62 l 1,16,-1
EndSplineSet
EndChar

StartChar: period
Encoding: 46 46 17
Width: 671
GlyphClass: 1
Flags: W
LayerCount: 2
Fore
SplineSet
0 62 m 1,0,-1
 0 4290 l 1,1,-1
 61 4290 l 1,2,-1
 61 62 l 1,3,-1
 0 62 l 1,0,-1
0 0 m 1,4,-1
 0 61 l 1,5,-1
 671 61 l 1,6,-1
 671 0 l 1,7,-1
 0 0 l 1,4,-1
0 4291 m 1,8,-1
 0 4352 l 1,9,-1
 671 4352 l 1,10,-1
 671 4291 l 1,11,-1
 0 4291 l 1,8,-1
183 62 m 1,12,-1
 183 4290 l 1,13,-1
 305 4290 l 1,14,-1
 305 62 l 1,15,-1
 183 62 l 1,12,-1
427 62 m 1,16,-1
 427 4290 l 1,17,-1
 610 4290 l 1,18,-1
 610 62 l 1,19,-1
 427 62 l 1,16,-1
EndSplineSet
EndChar

StartChar: slash
Encoding: 47 47 18
Width: 671
GlyphClass: 1
Flags: W
LayerCount: 2
Fore
SplineSet
0 62 m 1,0,-1
 0 4290 l 1,1,-1
 61 4290 l 1,2,-1
 61 62 l 1,3,-1
 0 62 l 1,0,-1
0 0 m 1,4,-1
 0 61 l 1,5,-1
 671 61 l 1,6,-1
 671 0 l 1,7,-1
 0 0 l 1,4,-1
0 4291 m 1,8,-1
 0 4352 l 1,9,-1
 671 4352 l 1,10,-1
 671 4291 l 1,11,-1
 0 4291 l 1,8,-1
427 62 m 1,12,-1
 427 4290 l 1,13,-1
 549 4290 l 1,14,-1
 549 62 l 1,15,-1
 427 62 l 1,12,-1
122 62 m 1,16,-1
 122 4290 l 1,17,-1
 305 4290 l 1,18,-1
 305 62 l 1,19,-1
 122 62 l 1,16,-1
EndSplineSet
EndChar

StartChar: zero
Encoding: 48 48 19
Width: 671
GlyphClass: 1
Flags: W
LayerCount: 2
Fore
SplineSet
0 62 m 1,0,-1
 0 4290 l 1,1,-1
 61 4290 l 1,2,-1
 61 62 l 1,3,-1
 0 62 l 1,0,-1
0 0 m 1,4,-1
 0 61 l 1,5,-1
 671 61 l 1,6,-1
 671 0 l 1,7,-1
 0 0 l 1,4,-1
0 4291 m 1,8,-1
 0 4352 l 1,9,-1
 671 4352 l 1,10,-1
 671 4291 l 1,11,-1
 0 4291 l 1,8,-1
427 62 m 1,12,-1
 427 4290 l 1,13,-1
 549 4290 l 1,14,-1
 549 62 l 1,15,-1
 427 62 l 1,12,-1
183 62 m 1,16,-1
 183 4290 l 1,17,-1
 366 4290 l 1,18,-1
 366 62 l 1,19,-1
 183 62 l 1,16,-1
EndSplineSet
EndChar

StartChar: one
Encoding: 49 49 20
Width: 671
GlyphClass: 1
Flags: W
LayerCount: 2
Fore
SplineSet
0 62 m 1,0,-1
 0 4290 l 1,1,-1
 61 4290 l 1,2,-1
 61 62 l 1,3,-1
 0 62 l 1,0,-1
0 0 m 1,4,-1
 0 61 l 1,5,-1
 671 61 l 1,6,-1
 671 0 l 1,7,-1
 0 0 l 1,4,-1
0 4291 m 1,8,-1
 0 4352 l 1,9,-1
 671 4352 l 1,10,-1
 671 4291 l 1,11,-1
 0 4291 l 1,8,-1
488 62 m 1,12,-1
 488 4290 l 1,13,-1
 610 4290 l 1,14,-1
 610 62 l 1,15,-1
 488 62 l 1,12,-1
183 62 m 1,16,-1
 183 4290 l 1,17,-1
 366 4290 l 1,18,-1
 366 62 l 1,19,-1
 183 62 l 1,16,-1
EndSplineSet
EndChar

StartChar: two
Encoding: 50 50 21
Width: 671
GlyphClass: 1
Flags: W
LayerCount: 2
Fore
SplineSet
549 62 m 1,0,-1
 549 4290 l 1,1,-1
 610 4290 l 1,2,-1
 610 62 l 1,3,-1
 549 62 l 1,0,-1
0 0 m 1,4,-1
 0 61 l 1,5,-1
 671 61 l 1,6,-1
 671 0 l 1,7,-1
 0 0 l 1,4,-1
0 4291 m 1,8,-1
 0 4352 l 1,9,-1
 671 4352 l 1,10,-1
 671 4291 l 1,11,-1
 0 4291 l 1,8,-1
0 62 m 1,12,-1
 0 4290 l 1,13,-1
 122 4290 l 1,14,-1
 122 62 l 1,15,-1
 0 62 l 1,12,-1
244 62 m 1,16,-1
 244 4290 l 1,17,-1
 427 4290 l 1,18,-1
 427 62 l 1,19,-1
 244 62 l 1,16,-1
EndSplineSet
EndChar

StartChar: three
Encoding: 51 51 22
Width: 671
GlyphClass: 1
Flags: W
LayerCount: 2
Fore
SplineSet
244 62 m 1,0,-1
 244 4290 l 1,1,-1
 305 4290 l 1,2,-1
 305 62 l 1,3,-1
 244 62 l 1,0,-1
0 0 m 1,4,-1
 0 61 l 1,5,-1
 671 61 l 1,6,-1
 671 0 l 1,7,-1
 0 0 l 1,4,-1
0 4291 m 1,8,-1
 0 4352 l 1,9,-1
 671 4352 l 1,10,-1
 671 4291 l 1,11,-1
 0 4291 l 1,8,-1
0 62 m 1,12,-1
 0 4290 l 1,13,-1
 122 4290 l 1,14,-1
 122 62 l 1,15,-1
 0 62 l 1,12,-1
366 62 m 1,16,-1
 366 4290 l 1,17,-1
 549 4290 l 1,18,-1
 549 62 l 1,19,-1
 366 62 l 1,16,-1
EndSplineSet
EndChar

StartChar: four
Encoding: 52 52 23
Width: 671
GlyphClass: 1
Flags: W
LayerCount: 2
Fore
SplineSet
244 62 m 1,0,-1
 244 4290 l 1,1,-1
 305 4290 l 1,2,-1
 305 62 l 1,3,-1
 244 62 l 1,0,-1
0 0 m 1,4,-1
 0 61 l 1,5,-1
 671 61 l 1,6,-1
 671 0 l 1,7,-1
 0 0 l 1,4,-1
0 4291 m 1,8,-1
 0 4352 l 1,9,-1
 671 4352 l 1,10,-1
 671 4291 l 1,11,-1
 0 4291 l 1,8,-1
0 62 m 1,12,-1
 0 4290 l 1,13,-1
 122 4290 l 1,14,-1
 122 62 l 1,15,-1
 0 62 l 1,12,-1
427 62 m 1,16,-1
 427 4290 l 1,17,-1
 610 4290 l 1,18,-1
 610 62 l 1,19,-1
 427 62 l 1,16,-1
EndSplineSet
EndChar

StartChar: five
Encoding: 53 53 24
Width: 671
GlyphClass: 1
Flags: W
LayerCount: 2
Fore
SplineSet
488 62 m 1,0,-1
 488 4290 l 1,1,-1
 549 4290 l 1,2,-1
 549 62 l 1,3,-1
 488 62 l 1,0,-1
0 0 m 1,4,-1
 0 61 l 1,5,-1
 671 61 l 1,6,-1
 671 0 l 1,7,-1
 0 0 l 1,4,-1
0 4291 m 1,8,-1
 0 4352 l 1,9,-1
 671 4352 l 1,10,-1
 671 4291 l 1,11,-1
 0 4291 l 1,8,-1
0 62 m 1,12,-1
 0 4290 l 1,13,-1
 122 4290 l 1,14,-1
 122 62 l 1,15,-1
 0 62 l 1,12,-1
183 62 m 1,16,-1
 183 4290 l 1,17,-1
 366 4290 l 1,18,-1
 366 62 l 1,19,-1
 183 62 l 1,16,-1
EndSplineSet
EndChar

StartChar: six
Encoding: 54 54 25
Width: 671
GlyphClass: 1
Flags: W
LayerCount: 2
Fore
SplineSet
488 62 m 1,0,-1
 488 4290 l 1,1,-1
 549 4290 l 1,2,-1
 549 62 l 1,3,-1
 488 62 l 1,0,-1
0 0 m 1,4,-1
 0 61 l 1,5,-1
 671 61 l 1,6,-1
 671 0 l 1,7,-1
 0 0 l 1,4,-1
0 4291 m 1,8,-1
 0 4352 l 1,9,-1
 671 4352 l 1,10,-1
 671 4291 l 1,11,-1
 0 4291 l 1,8,-1
0 62 m 1,12,-1
 0 4290 l 1,13,-1
 122 4290 l 1,14,-1
 122 62 l 1,15,-1
 0 62 l 1,12,-1
244 62 m 1,16,-1
 244 4290 l 1,17,-1
 427 4290 l 1,18,-1
 427 62 l 1,19,-1
 244 62 l 1,16,-1
EndSplineSet
EndChar

StartChar: seven
Encoding: 55 55 26
Width: 671
GlyphClass: 1
Flags: W
LayerCount: 2
Fore
SplineSet
0 62 m 1,0,-1
 0 4290 l 1,1,-1
 183 4290 l 1,2,-1
 183 62 l 1,3,-1
 0 62 l 1,0,-1
0 0 m 1,4,-1
 0 61 l 1,5,-1
 671 61 l 1,6,-1
 671 0 l 1,7,-1
 0 0 l 1,4,-1
0 4291 m 1,8,-1
 0 4352 l 1,9,-1
 671 4352 l 1,10,-1
 671 4291 l 1,11,-1
 0 4291 l 1,8,-1
244 62 m 1,12,-1
 244 4290 l 1,13,-1
 366 4290 l 1,14,-1
 366 62 l 1,15,-1
 244 62 l 1,12,-1
427 62 m 1,16,-1
 427 4290 l 1,17,-1
 610 4290 l 1,18,-1
 610 62 l 1,19,-1
 427 62 l 1,16,-1
EndSplineSet
EndChar

StartChar: eight
Encoding: 56 56 27
Width: 671
GlyphClass: 1
Flags: W
LayerCount: 2
Fore
SplineSet
0 62 m 1,0,-1
 0 4290 l 1,1,-1
 183 4290 l 1,2,-1
 183 62 l 1,3,-1
 0 62 l 1,0,-1
0 0 m 1,4,-1
 0 61 l 1,5,-1
 671 61 l 1,6,-1
 671 0 l 1,7,-1
 0 0 l 1,4,-1
0 4291 m 1,8,-1
 0 4352 l 1,9,-1
 671 4352 l 1,10,-1
 671 4291 l 1,11,-1
 0 4291 l 1,8,-1
244 62 m 1,12,-1
 244 4290 l 1,13,-1
 305 4290 l 1,14,-1
 305 62 l 1,15,-1
 244 62 l 1,12,-1
427 62 m 1,16,-1
 427 4290 l 1,17,-1
 549 4290 l 1,18,-1
 549 62 l 1,19,-1
 427 62 l 1,16,-1
EndSplineSet
EndChar

StartChar: nine
Encoding: 57 57 28
Width: 671
GlyphClass: 1
Flags: W
LayerCount: 2
Fore
SplineSet
0 62 m 1,0,-1
 0 4290 l 1,1,-1
 183 4290 l 1,2,-1
 183 62 l 1,3,-1
 0 62 l 1,0,-1
0 0 m 1,4,-1
 0 61 l 1,5,-1
 671 61 l 1,6,-1
 671 0 l 1,7,-1
 0 0 l 1,4,-1
0 4291 m 1,8,-1
 0 4352 l 1,9,-1
 671 4352 l 1,10,-1
 671 4291 l 1,11,-1
 0 4291 l 1,8,-1
305 62 m 1,12,-1
 305 4290 l 1,13,-1
 366 4290 l 1,14,-1
 366 62 l 1,15,-1
 305 62 l 1,12,-1
427 62 m 1,16,-1
 427 4290 l 1,17,-1
 549 4290 l 1,18,-1
 549 62 l 1,19,-1
 427 62 l 1,16,-1
EndSplineSet
EndChar

StartChar: colon
Encoding: 58 58 29
Width: 671
GlyphClass: 1
Flags: W
LayerCount: 2
Fore
SplineSet
0 62 m 1,0,-1
 0 4290 l 1,1,-1
 183 4290 l 1,2,-1
 183 62 l 1,3,-1
 0 62 l 1,0,-1
0 0 m 1,4,-1
 0 61 l 1,5,-1
 671 61 l 1,6,-1
 671 0 l 1,7,-1
 0 0 l 1,4,-1
0 4291 m 1,8,-1
 0 4352 l 1,9,-1
 671 4352 l 1,10,-1
 671 4291 l 1,11,-1
 0 4291 l 1,8,-1
305 62 m 1,12,-1
 305 4290 l 1,13,-1
 366 4290 l 1,14,-1
 366 62 l 1,15,-1
 305 62 l 1,12,-1
488 62 m 1,16,-1
 488 4290 l 1,17,-1
 610 4290 l 1,18,-1
 610 62 l 1,19,-1
 488 62 l 1,16,-1
EndSplineSet
EndChar

StartChar: semicolon
Encoding: 59 59 30
Width: 671
GlyphClass: 1
Flags: W
LayerCount: 2
Fore
SplineSet
0 62 m 1,0,-1
 0 4290 l 1,1,-1
 183 4290 l 1,2,-1
 183 62 l 1,3,-1
 0 62 l 1,0,-1
0 0 m 1,4,-1
 0 61 l 1,5,-1
 671 61 l 1,6,-1
 671 0 l 1,7,-1
 0 0 l 1,4,-1
0 4291 m 1,8,-1
 0 4352 l 1,9,-1
 671 4352 l 1,10,-1
 671 4291 l 1,11,-1
 0 4291 l 1,8,-1
488 62 m 1,12,-1
 488 4290 l 1,13,-1
 549 4290 l 1,14,-1
 549 62 l 1,15,-1
 488 62 l 1,12,-1
244 62 m 1,16,-1
 244 4290 l 1,17,-1
 366 4290 l 1,18,-1
 366 62 l 1,19,-1
 244 62 l 1,16,-1
EndSplineSet
EndChar

StartChar: less
Encoding: 60 60 31
Width: 671
GlyphClass: 1
Flags: W
LayerCount: 2
Fore
SplineSet
0 62 m 1,0,-1
 0 4290 l 1,1,-1
 183 4290 l 1,2,-1
 183 62 l 1,3,-1
 0 62 l 1,0,-1
0 0 m 1,4,-1
 0 61 l 1,5,-1
 671 61 l 1,6,-1
 671 0 l 1,7,-1
 0 0 l 1,4,-1
0 4291 m 1,8,-1
 0 4352 l 1,9,-1
 671 4352 l 1,10,-1
 671 4291 l 1,11,-1
 0 4291 l 1,8,-1
488 62 m 1,12,-1
 488 4290 l 1,13,-1
 549 4290 l 1,14,-1
 549 62 l 1,15,-1
 488 62 l 1,12,-1
305 62 m 1,16,-1
 305 4290 l 1,17,-1
 427 4290 l 1,18,-1
 427 62 l 1,19,-1
 305 62 l 1,16,-1
EndSplineSet
EndChar

StartChar: equal
Encoding: 61 61 32
Width: 671
GlyphClass: 1
Flags: W
LayerCount: 2
Fore
SplineSet
0 62 m 1,0,-1
 0 4290 l 1,1,-1
 183 4290 l 1,2,-1
 183 62 l 1,3,-1
 0 62 l 1,0,-1
0 0 m 1,4,-1
 0 61 l 1,5,-1
 671 61 l 1,6,-1
 671 0 l 1,7,-1
 0 0 l 1,4,-1
0 4291 m 1,8,-1
 0 4352 l 1,9,-1
 671 4352 l 1,10,-1
 671 4291 l 1,11,-1
 0 4291 l 1,8,-1
549 62 m 1,12,-1
 549 4290 l 1,13,-1
 610 4290 l 1,14,-1
 610 62 l 1,15,-1
 549 62 l 1,12,-1
305 62 m 1,16,-1
 305 4290 l 1,17,-1
 427 4290 l 1,18,-1
 427 62 l 1,19,-1
 305 62 l 1,16,-1
EndSplineSet
EndChar

StartChar: greater
Encoding: 62 62 33
Width: 671
GlyphClass: 1
Flags: W
LayerCount: 2
Fore
SplineSet
0 62 m 1,0,-1
 0 4290 l 1,1,-1
 122 4290 l 1,2,-1
 122 62 l 1,3,-1
 0 62 l 1,0,-1
0 0 m 1,4,-1
 0 61 l 1,5,-1
 671 61 l 1,6,-1
 671 0 l 1,7,-1
 0 0 l 1,4,-1
0 4291 m 1,8,-1
 0 4352 l 1,9,-1
 671 4352 l 1,10,-1
 671 4291 l 1,11,-1
 0 4291 l 1,8,-1
183 62 m 1,12,-1
 183 4290 l 1,13,-1
 305 4290 l 1,14,-1
 305 62 l 1,15,-1
 183 62 l 1,12,-1
366 62 m 1,16,-1
 366 4290 l 1,17,-1
 488 4290 l 1,18,-1
 488 62 l 1,19,-1
 366 62 l 1,16,-1
EndSplineSet
EndChar

StartChar: question
Encoding: 63 63 34
Width: 671
GlyphClass: 1
Flags: W
LayerCount: 2
Fore
SplineSet
0 62 m 1,0,-1
 0 4290 l 1,1,-1
 122 4290 l 1,2,-1
 122 62 l 1,3,-1
 0 62 l 1,0,-1
0 0 m 1,4,-1
 0 61 l 1,5,-1
 671 61 l 1,6,-1
 671 0 l 1,7,-1
 0 0 l 1,4,-1
0 4291 m 1,8,-1
 0 4352 l 1,9,-1
 671 4352 l 1,10,-1
 671 4291 l 1,11,-1
 0 4291 l 1,8,-1
183 62 m 1,12,-1
 183 4290 l 1,13,-1
 305 4290 l 1,14,-1
 305 62 l 1,15,-1
 183 62 l 1,12,-1
488 62 m 1,16,-1
 488 4290 l 1,17,-1
 610 4290 l 1,18,-1
 610 62 l 1,19,-1
 488 62 l 1,16,-1
EndSplineSet
EndChar

StartChar: at
Encoding: 64 64 35
Width: 671
GlyphClass: 1
Flags: W
LayerCount: 2
Fore
SplineSet
0 62 m 1,0,-1
 0 4290 l 1,1,-1
 122 4290 l 1,2,-1
 122 62 l 1,3,-1
 0 62 l 1,0,-1
0 0 m 1,4,-1
 0 61 l 1,5,-1
 671 61 l 1,6,-1
 671 0 l 1,7,-1
 0 0 l 1,4,-1
0 4291 m 1,8,-1
 0 4352 l 1,9,-1
 671 4352 l 1,10,-1
 671 4291 l 1,11,-1
 0 4291 l 1,8,-1
305 62 m 1,12,-1
 305 4290 l 1,13,-1
 427 4290 l 1,14,-1
 427 62 l 1,15,-1
 305 62 l 1,12,-1
488 62 m 1,16,-1
 488 4290 l 1,17,-1
 610 4290 l 1,18,-1
 610 62 l 1,19,-1
 488 62 l 1,16,-1
EndSplineSet
EndChar

StartChar: A
Encoding: 65 65 36
Width: 671
GlyphClass: 1
Flags: W
LayerCount: 2
Fore
SplineSet
0 62 m 1,0,-1
 0 4290 l 1,1,-1
 61 4290 l 1,2,-1
 61 62 l 1,3,-1
 0 62 l 1,0,-1
0 0 m 1,4,-1
 0 61 l 1,5,-1
 671 61 l 1,6,-1
 671 0 l 1,7,-1
 0 0 l 1,4,-1
0 4291 m 1,8,-1
 0 4352 l 1,9,-1
 671 4352 l 1,10,-1
 671 4291 l 1,11,-1
 0 4291 l 1,8,-1
122 62 m 1,12,-1
 122 4290 l 1,13,-1
 183 4290 l 1,14,-1
 183 62 l 1,15,-1
 122 62 l 1,12,-1
366 62 m 1,16,-1
 366 4290 l 1,17,-1
 488 4290 l 1,18,-1
 488 62 l 1,19,-1
 366 62 l 1,16,-1
EndSplineSet
EndChar

StartChar: B
Encoding: 66 66 37
Width: 671
GlyphClass: 1
Flags: W
LayerCount: 2
Fore
SplineSet
0 62 m 1,0,-1
 0 4290 l 1,1,-1
 61 4290 l 1,2,-1
 61 62 l 1,3,-1
 0 62 l 1,0,-1
0 0 m 1,4,-1
 0 61 l 1,5,-1
 671 61 l 1,6,-1
 671 0 l 1,7,-1
 0 0 l 1,4,-1
0 4291 m 1,8,-1
 0 4352 l 1,9,-1
 671 4352 l 1,10,-1
 671 4291 l 1,11,-1
 0 4291 l 1,8,-1
244 62 m 1,12,-1
 244 4290 l 1,13,-1
 305 4290 l 1,14,-1
 305 62 l 1,15,-1
 244 62 l 1,12,-1
366 62 m 1,16,-1
 366 4290 l 1,17,-1
 488 4290 l 1,18,-1
 488 62 l 1,19,-1
 366 62 l 1,16,-1
EndSplineSet
EndChar

StartChar: C
Encoding: 67 67 38
Width: 671
GlyphClass: 1
Flags: W
LayerCount: 2
Fore
SplineSet
0 62 m 1,0,-1
 0 4290 l 1,1,-1
 61 4290 l 1,2,-1
 61 62 l 1,3,-1
 0 62 l 1,0,-1
0 0 m 1,4,-1
 0 61 l 1,5,-1
 671 61 l 1,6,-1
 671 0 l 1,7,-1
 0 0 l 1,4,-1
0 4291 m 1,8,-1
 0 4352 l 1,9,-1
 671 4352 l 1,10,-1
 671 4291 l 1,11,-1
 0 4291 l 1,8,-1
244 62 m 1,12,-1
 244 4290 l 1,13,-1
 305 4290 l 1,14,-1
 305 62 l 1,15,-1
 244 62 l 1,12,-1
488 62 m 1,16,-1
 488 4290 l 1,17,-1
 610 4290 l 1,18,-1
 610 62 l 1,19,-1
 488 62 l 1,16,-1
EndSplineSet
EndChar

StartChar: D
Encoding: 68 68 39
Width: 671
GlyphClass: 1
Flags: W
LayerCount: 2
Fore
SplineSet
0 62 m 1,0,-1
 0 4290 l 1,1,-1
 61 4290 l 1,2,-1
 61 62 l 1,3,-1
 0 62 l 1,0,-1
0 0 m 1,4,-1
 0 61 l 1,5,-1
 671 61 l 1,6,-1
 671 0 l 1,7,-1
 0 0 l 1,4,-1
0 4291 m 1,8,-1
 0 4352 l 1,9,-1
 671 4352 l 1,10,-1
 671 4291 l 1,11,-1
 0 4291 l 1,8,-1
427 62 m 1,12,-1
 427 4290 l 1,13,-1
 488 4290 l 1,14,-1
 488 62 l 1,15,-1
 427 62 l 1,12,-1
122 62 m 1,16,-1
 122 4290 l 1,17,-1
 244 4290 l 1,18,-1
 244 62 l 1,19,-1
 122 62 l 1,16,-1
EndSplineSet
EndChar

StartChar: E
Encoding: 69 69 40
Width: 671
GlyphClass: 1
Flags: W
LayerCount: 2
Fore
SplineSet
0 62 m 1,0,-1
 0 4290 l 1,1,-1
 61 4290 l 1,2,-1
 61 62 l 1,3,-1
 0 62 l 1,0,-1
0 0 m 1,4,-1
 0 61 l 1,5,-1
 671 61 l 1,6,-1
 671 0 l 1,7,-1
 0 0 l 1,4,-1
0 4291 m 1,8,-1
 0 4352 l 1,9,-1
 671 4352 l 1,10,-1
 671 4291 l 1,11,-1
 0 4291 l 1,8,-1
427 62 m 1,12,-1
 427 4290 l 1,13,-1
 488 4290 l 1,14,-1
 488 62 l 1,15,-1
 427 62 l 1,12,-1
244 62 m 1,16,-1
 244 4290 l 1,17,-1
 366 4290 l 1,18,-1
 366 62 l 1,19,-1
 244 62 l 1,16,-1
EndSplineSet
EndChar

StartChar: F
Encoding: 70 70 41
Width: 671
GlyphClass: 1
Flags: W
LayerCount: 2
Fore
SplineSet
0 62 m 1,0,-1
 0 4290 l 1,1,-1
 61 4290 l 1,2,-1
 61 62 l 1,3,-1
 0 62 l 1,0,-1
0 0 m 1,4,-1
 0 61 l 1,5,-1
 671 61 l 1,6,-1
 671 0 l 1,7,-1
 0 0 l 1,4,-1
0 4291 m 1,8,-1
 0 4352 l 1,9,-1
 671 4352 l 1,10,-1
 671 4291 l 1,11,-1
 0 4291 l 1,8,-1
549 62 m 1,12,-1
 549 4290 l 1,13,-1
 610 4290 l 1,14,-1
 610 62 l 1,15,-1
 549 62 l 1,12,-1
244 62 m 1,16,-1
 244 4290 l 1,17,-1
 366 4290 l 1,18,-1
 366 62 l 1,19,-1
 244 62 l 1,16,-1
EndSplineSet
EndChar

StartChar: G
Encoding: 71 71 42
Width: 671
GlyphClass: 1
Flags: W
LayerCount: 2
Fore
SplineSet
183 62 m 1,0,-1
 183 4290 l 1,1,-1
 244 4290 l 1,2,-1
 244 62 l 1,3,-1
 183 62 l 1,0,-1
0 0 m 1,4,-1
 0 61 l 1,5,-1
 671 61 l 1,6,-1
 671 0 l 1,7,-1
 0 0 l 1,4,-1
0 4291 m 1,8,-1
 0 4352 l 1,9,-1
 671 4352 l 1,10,-1
 671 4291 l 1,11,-1
 0 4291 l 1,8,-1
427 62 m 1,12,-1
 427 4290 l 1,13,-1
 488 4290 l 1,14,-1
 488 62 l 1,15,-1
 427 62 l 1,12,-1
0 62 m 1,16,-1
 0 4290 l 1,17,-1
 122 4290 l 1,18,-1
 122 62 l 1,19,-1
 0 62 l 1,16,-1
EndSplineSet
EndChar

StartChar: H
Encoding: 72 72 43
Width: 671
GlyphClass: 1
Flags: W
LayerCount: 2
Fore
SplineSet
305 62 m 1,0,-1
 305 4290 l 1,1,-1
 366 4290 l 1,2,-1
 366 62 l 1,3,-1
 305 62 l 1,0,-1
0 0 m 1,4,-1
 0 61 l 1,5,-1
 671 61 l 1,6,-1
 671 0 l 1,7,-1
 0 0 l 1,4,-1
0 4291 m 1,8,-1
 0 4352 l 1,9,-1
 671 4352 l 1,10,-1
 671 4291 l 1,11,-1
 0 4291 l 1,8,-1
427 62 m 1,12,-1
 427 4290 l 1,13,-1
 488 4290 l 1,14,-1
 488 62 l 1,15,-1
 427 62 l 1,12,-1
0 62 m 1,16,-1
 0 4290 l 1,17,-1
 122 4290 l 1,18,-1
 122 62 l 1,19,-1
 0 62 l 1,16,-1
EndSplineSet
EndChar

StartChar: I
Encoding: 73 73 44
Width: 671
GlyphClass: 1
Flags: W
LayerCount: 2
Fore
SplineSet
305 62 m 1,0,-1
 305 4290 l 1,1,-1
 366 4290 l 1,2,-1
 366 62 l 1,3,-1
 305 62 l 1,0,-1
0 0 m 1,4,-1
 0 61 l 1,5,-1
 671 61 l 1,6,-1
 671 0 l 1,7,-1
 0 0 l 1,4,-1
0 4291 m 1,8,-1
 0 4352 l 1,9,-1
 671 4352 l 1,10,-1
 671 4291 l 1,11,-1
 0 4291 l 1,8,-1
549 62 m 1,12,-1
 549 4290 l 1,13,-1
 610 4290 l 1,14,-1
 610 62 l 1,15,-1
 549 62 l 1,12,-1
0 62 m 1,16,-1
 0 4290 l 1,17,-1
 122 4290 l 1,18,-1
 122 62 l 1,19,-1
 0 62 l 1,16,-1
EndSplineSet
EndChar

StartChar: J
Encoding: 74 74 45
Width: 671
GlyphClass: 1
Flags: W
LayerCount: 2
Fore
SplineSet
0 62 m 1,0,-1
 0 4290 l 1,1,-1
 61 4290 l 1,2,-1
 61 62 l 1,3,-1
 0 62 l 1,0,-1
0 0 m 1,4,-1
 0 61 l 1,5,-1
 671 61 l 1,6,-1
 671 0 l 1,7,-1
 0 0 l 1,4,-1
0 4291 m 1,8,-1
 0 4352 l 1,9,-1
 671 4352 l 1,10,-1
 671 4291 l 1,11,-1
 0 4291 l 1,8,-1
122 62 m 1,12,-1
 122 4290 l 1,13,-1
 244 4290 l 1,14,-1
 244 62 l 1,15,-1
 122 62 l 1,12,-1
305 62 m 1,16,-1
 305 4290 l 1,17,-1
 488 4290 l 1,18,-1
 488 62 l 1,19,-1
 305 62 l 1,16,-1
EndSplineSet
EndChar

StartChar: K
Encoding: 75 75 46
Width: 671
GlyphClass: 1
Flags: W
LayerCount: 2
Fore
SplineSet
0 62 m 1,0,-1
 0 4290 l 1,1,-1
 61 4290 l 1,2,-1
 61 62 l 1,3,-1
 0 62 l 1,0,-1
0 0 m 1,4,-1
 0 61 l 1,5,-1
 671 61 l 1,6,-1
 671 0 l 1,7,-1
 0 0 l 1,4,-1
0 4291 m 1,8,-1
 0 4352 l 1,9,-1
 671 4352 l 1,10,-1
 671 4291 l 1,11,-1
 0 4291 l 1,8,-1
122 62 m 1,12,-1
 122 4290 l 1,13,-1
 244 4290 l 1,14,-1
 244 62 l 1,15,-1
 122 62 l 1,12,-1
427 62 m 1,16,-1
 427 4290 l 1,17,-1
 610 4290 l 1,18,-1
 610 62 l 1,19,-1
 427 62 l 1,16,-1
EndSplineSet
EndChar

StartChar: L
Encoding: 76 76 47
Width: 671
GlyphClass: 1
Flags: W
LayerCount: 2
Fore
SplineSet
0 62 m 1,0,-1
 0 4290 l 1,1,-1
 61 4290 l 1,2,-1
 61 62 l 1,3,-1
 0 62 l 1,0,-1
0 0 m 1,4,-1
 0 61 l 1,5,-1
 671 61 l 1,6,-1
 671 0 l 1,7,-1
 0 0 l 1,4,-1
0 4291 m 1,8,-1
 0 4352 l 1,9,-1
 671 4352 l 1,10,-1
 671 4291 l 1,11,-1
 0 4291 l 1,8,-1
244 62 m 1,12,-1
 244 4290 l 1,13,-1
 366 4290 l 1,14,-1
 366 62 l 1,15,-1
 244 62 l 1,12,-1
427 62 m 1,16,-1
 427 4290 l 1,17,-1
 610 4290 l 1,18,-1
 610 62 l 1,19,-1
 427 62 l 1,16,-1
EndSplineSet
EndChar

StartChar: M
Encoding: 77 77 48
Width: 671
GlyphClass: 1
Flags: W
LayerCount: 2
Fore
SplineSet
0 62 m 1,0,-1
 0 4290 l 1,1,-1
 61 4290 l 1,2,-1
 61 62 l 1,3,-1
 0 62 l 1,0,-1
0 0 m 1,4,-1
 0 61 l 1,5,-1
 671 61 l 1,6,-1
 671 0 l 1,7,-1
 0 0 l 1,4,-1
0 4291 m 1,8,-1
 0 4352 l 1,9,-1
 671 4352 l 1,10,-1
 671 4291 l 1,11,-1
 0 4291 l 1,8,-1
366 62 m 1,12,-1
 366 4290 l 1,13,-1
 488 4290 l 1,14,-1
 488 62 l 1,15,-1
 366 62 l 1,12,-1
122 62 m 1,16,-1
 122 4290 l 1,17,-1
 305 4290 l 1,18,-1
 305 62 l 1,19,-1
 122 62 l 1,16,-1
EndSplineSet
EndChar

StartChar: N
Encoding: 78 78 49
Width: 671
GlyphClass: 1
Flags: W
LayerCount: 2
Fore
SplineSet
0 62 m 1,0,-1
 0 4290 l 1,1,-1
 61 4290 l 1,2,-1
 61 62 l 1,3,-1
 0 62 l 1,0,-1
0 0 m 1,4,-1
 0 61 l 1,5,-1
 671 61 l 1,6,-1
 671 0 l 1,7,-1
 0 0 l 1,4,-1
0 4291 m 1,8,-1
 0 4352 l 1,9,-1
 671 4352 l 1,10,-1
 671 4291 l 1,11,-1
 0 4291 l 1,8,-1
488 62 m 1,12,-1
 488 4290 l 1,13,-1
 610 4290 l 1,14,-1
 610 62 l 1,15,-1
 488 62 l 1,12,-1
122 62 m 1,16,-1
 122 4290 l 1,17,-1
 305 4290 l 1,18,-1
 305 62 l 1,19,-1
 122 62 l 1,16,-1
EndSplineSet
EndChar

StartChar: O
Encoding: 79 79 50
Width: 671
GlyphClass: 1
Flags: W
LayerCount: 2
Fore
SplineSet
0 62 m 1,0,-1
 0 4290 l 1,1,-1
 61 4290 l 1,2,-1
 61 62 l 1,3,-1
 0 62 l 1,0,-1
0 0 m 1,4,-1
 0 61 l 1,5,-1
 671 61 l 1,6,-1
 671 0 l 1,7,-1
 0 0 l 1,4,-1
0 4291 m 1,8,-1
 0 4352 l 1,9,-1
 671 4352 l 1,10,-1
 671 4291 l 1,11,-1
 0 4291 l 1,8,-1
488 62 m 1,12,-1
 488 4290 l 1,13,-1
 610 4290 l 1,14,-1
 610 62 l 1,15,-1
 488 62 l 1,12,-1
244 62 m 1,16,-1
 244 4290 l 1,17,-1
 427 4290 l 1,18,-1
 427 62 l 1,19,-1
 244 62 l 1,16,-1
EndSplineSet
EndChar

StartChar: P
Encoding: 80 80 51
Width: 671
GlyphClass: 1
Flags: W
LayerCount: 2
Fore
SplineSet
0 62 m 1,0,-1
 0 4290 l 1,1,-1
 183 4290 l 1,2,-1
 183 62 l 1,3,-1
 0 62 l 1,0,-1
0 0 m 1,4,-1
 0 61 l 1,5,-1
 671 61 l 1,6,-1
 671 0 l 1,7,-1
 0 0 l 1,4,-1
0 4291 m 1,8,-1
 0 4352 l 1,9,-1
 671 4352 l 1,10,-1
 671 4291 l 1,11,-1
 0 4291 l 1,8,-1
488 62 m 1,12,-1
 488 4290 l 1,13,-1
 610 4290 l 1,14,-1
 610 62 l 1,15,-1
 488 62 l 1,12,-1
244 62 m 1,16,-1
 244 4290 l 1,17,-1
 427 4290 l 1,18,-1
 427 62 l 1,19,-1
 244 62 l 1,16,-1
EndSplineSet
EndChar

StartChar: Q
Encoding: 81 81 52
Width: 671
GlyphClass: 1
Flags: W
LayerCount: 2
Fore
SplineSet
0 62 m 1,0,-1
 0 4290 l 1,1,-1
 122 4290 l 1,2,-1
 122 62 l 1,3,-1
 0 62 l 1,0,-1
0 0 m 1,4,-1
 0 61 l 1,5,-1
 671 61 l 1,6,-1
 671 0 l 1,7,-1
 0 0 l 1,4,-1
0 4291 m 1,8,-1
 0 4352 l 1,9,-1
 671 4352 l 1,10,-1
 671 4291 l 1,11,-1
 0 4291 l 1,8,-1
183 62 m 1,12,-1
 183 4290 l 1,13,-1
 244 4290 l 1,14,-1
 244 62 l 1,15,-1
 183 62 l 1,12,-1
427 62 m 1,16,-1
 427 4290 l 1,17,-1
 610 4290 l 1,18,-1
 610 62 l 1,19,-1
 427 62 l 1,16,-1
EndSplineSet
EndChar

StartChar: R
Encoding: 82 82 53
Width: 671
GlyphClass: 1
Flags: W
LayerCount: 2
Fore
SplineSet
0 62 m 1,0,-1
 0 4290 l 1,1,-1
 122 4290 l 1,2,-1
 122 62 l 1,3,-1
 0 62 l 1,0,-1
0 0 m 1,4,-1
 0 61 l 1,5,-1
 671 61 l 1,6,-1
 671 0 l 1,7,-1
 0 0 l 1,4,-1
0 4291 m 1,8,-1
 0 4352 l 1,9,-1
 671 4352 l 1,10,-1
 671 4291 l 1,11,-1
 0 4291 l 1,8,-1
305 62 m 1,12,-1
 305 4290 l 1,13,-1
 366 4290 l 1,14,-1
 366 62 l 1,15,-1
 305 62 l 1,12,-1
427 62 m 1,16,-1
 427 4290 l 1,17,-1
 610 4290 l 1,18,-1
 610 62 l 1,19,-1
 427 62 l 1,16,-1
EndSplineSet
EndChar

StartChar: S
Encoding: 83 83 54
Width: 671
GlyphClass: 1
Flags: W
LayerCount: 2
Fore
SplineSet
0 62 m 1,0,-1
 0 4290 l 1,1,-1
 122 4290 l 1,2,-1
 122 62 l 1,3,-1
 0 62 l 1,0,-1
0 0 m 1,4,-1
 0 61 l 1,5,-1
 671 61 l 1,6,-1
 671 0 l 1,7,-1
 0 0 l 1,4,-1
0 4291 m 1,8,-1
 0 4352 l 1,9,-1
 671 4352 l 1,10,-1
 671 4291 l 1,11,-1
 0 4291 l 1,8,-1
427 62 m 1,12,-1
 427 4290 l 1,13,-1
 488 4290 l 1,14,-1
 488 62 l 1,15,-1
 427 62 l 1,12,-1
183 62 m 1,16,-1
 183 4290 l 1,17,-1
 366 4290 l 1,18,-1
 366 62 l 1,19,-1
 183 62 l 1,16,-1
EndSplineSet
EndChar

StartChar: T
Encoding: 84 84 55
Width: 671
GlyphClass: 1
Flags: W
LayerCount: 2
Fore
SplineSet
0 62 m 1,0,-1
 0 4290 l 1,1,-1
 122 4290 l 1,2,-1
 122 62 l 1,3,-1
 0 62 l 1,0,-1
0 0 m 1,4,-1
 0 61 l 1,5,-1
 671 61 l 1,6,-1
 671 0 l 1,7,-1
 0 0 l 1,4,-1
0 4291 m 1,8,-1
 0 4352 l 1,9,-1
 671 4352 l 1,10,-1
 671 4291 l 1,11,-1
 0 4291 l 1,8,-1
549 62 m 1,12,-1
 549 4290 l 1,13,-1
 610 4290 l 1,14,-1
 610 62 l 1,15,-1
 549 62 l 1,12,-1
183 62 m 1,16,-1
 183 4290 l 1,17,-1
 366 4290 l 1,18,-1
 366 62 l 1,19,-1
 183 62 l 1,16,-1
EndSplineSet
EndChar

StartChar: U
Encoding: 85 85 56
Width: 671
GlyphClass: 1
Flags: W
LayerCount: 2
Fore
SplineSet
0 62 m 1,0,-1
 0 4290 l 1,1,-1
 122 4290 l 1,2,-1
 122 62 l 1,3,-1
 0 62 l 1,0,-1
0 0 m 1,4,-1
 0 61 l 1,5,-1
 671 61 l 1,6,-1
 671 0 l 1,7,-1
 0 0 l 1,4,-1
0 4291 m 1,8,-1
 0 4352 l 1,9,-1
 671 4352 l 1,10,-1
 671 4291 l 1,11,-1
 0 4291 l 1,8,-1
427 62 m 1,12,-1
 427 4290 l 1,13,-1
 610 4290 l 1,14,-1
 610 62 l 1,15,-1
 427 62 l 1,12,-1
183 62 m 1,16,-1
 183 4290 l 1,17,-1
 366 4290 l 1,18,-1
 366 62 l 1,19,-1
 183 62 l 1,16,-1
EndSplineSet
EndChar

StartChar: V
Encoding: 86 86 57
Width: 671
GlyphClass: 1
Flags: W
LayerCount: 2
Fore
SplineSet
0 62 m 1,0,-1
 0 4290 l 1,1,-1
 183 4290 l 1,2,-1
 183 62 l 1,3,-1
 0 62 l 1,0,-1
0 0 m 1,4,-1
 0 61 l 1,5,-1
 671 61 l 1,6,-1
 671 0 l 1,7,-1
 0 0 l 1,4,-1
0 4291 m 1,8,-1
 0 4352 l 1,9,-1
 671 4352 l 1,10,-1
 671 4291 l 1,11,-1
 0 4291 l 1,8,-1
244 62 m 1,12,-1
 244 4290 l 1,13,-1
 305 4290 l 1,14,-1
 305 62 l 1,15,-1
 244 62 l 1,12,-1
366 62 m 1,16,-1
 366 4290 l 1,17,-1
 488 4290 l 1,18,-1
 488 62 l 1,19,-1
 366 62 l 1,16,-1
EndSplineSet
EndChar

StartChar: W
Encoding: 87 87 58
Width: 671
GlyphClass: 1
Flags: W
LayerCount: 2
Fore
SplineSet
0 62 m 1,0,-1
 0 4290 l 1,1,-1
 183 4290 l 1,2,-1
 183 62 l 1,3,-1
 0 62 l 1,0,-1
0 0 m 1,4,-1
 0 61 l 1,5,-1
 671 61 l 1,6,-1
 671 0 l 1,7,-1
 0 0 l 1,4,-1
0 4291 m 1,8,-1
 0 4352 l 1,9,-1
 671 4352 l 1,10,-1
 671 4291 l 1,11,-1
 0 4291 l 1,8,-1
244 62 m 1,12,-1
 244 4290 l 1,13,-1
 305 4290 l 1,14,-1
 305 62 l 1,15,-1
 244 62 l 1,12,-1
488 62 m 1,16,-1
 488 4290 l 1,17,-1
 610 4290 l 1,18,-1
 610 62 l 1,19,-1
 488 62 l 1,16,-1
EndSplineSet
EndChar

StartChar: X
Encoding: 88 88 59
Width: 671
GlyphClass: 1
Flags: W
LayerCount: 2
Fore
SplineSet
0 62 m 1,0,-1
 0 4290 l 1,1,-1
 183 4290 l 1,2,-1
 183 62 l 1,3,-1
 0 62 l 1,0,-1
0 0 m 1,4,-1
 0 61 l 1,5,-1
 671 61 l 1,6,-1
 671 0 l 1,7,-1
 0 0 l 1,4,-1
0 4291 m 1,8,-1
 0 4352 l 1,9,-1
 671 4352 l 1,10,-1
 671 4291 l 1,11,-1
 0 4291 l 1,8,-1
366 62 m 1,12,-1
 366 4290 l 1,13,-1
 427 4290 l 1,14,-1
 427 62 l 1,15,-1
 366 62 l 1,12,-1
488 62 m 1,16,-1
 488 4290 l 1,17,-1
 610 4290 l 1,18,-1
 610 62 l 1,19,-1
 488 62 l 1,16,-1
EndSplineSet
EndChar

StartChar: Y
Encoding: 89 89 60
Width: 671
GlyphClass: 1
Flags: W
LayerCount: 2
Fore
SplineSet
0 62 m 1,0,-1
 0 4290 l 1,1,-1
 183 4290 l 1,2,-1
 183 62 l 1,3,-1
 0 62 l 1,0,-1
0 0 m 1,4,-1
 0 61 l 1,5,-1
 671 61 l 1,6,-1
 671 0 l 1,7,-1
 0 0 l 1,4,-1
0 4291 m 1,8,-1
 0 4352 l 1,9,-1
 671 4352 l 1,10,-1
 671 4291 l 1,11,-1
 0 4291 l 1,8,-1
427 62 m 1,12,-1
 427 4290 l 1,13,-1
 488 4290 l 1,14,-1
 488 62 l 1,15,-1
 427 62 l 1,12,-1
244 62 m 1,16,-1
 244 4290 l 1,17,-1
 366 4290 l 1,18,-1
 366 62 l 1,19,-1
 244 62 l 1,16,-1
EndSplineSet
EndChar

StartChar: Z
Encoding: 90 90 61
Width: 671
GlyphClass: 1
Flags: W
LayerCount: 2
Fore
SplineSet
0 62 m 1,0,-1
 0 4290 l 1,1,-1
 183 4290 l 1,2,-1
 183 62 l 1,3,-1
 0 62 l 1,0,-1
0 0 m 1,4,-1
 0 61 l 1,5,-1
 671 61 l 1,6,-1
 671 0 l 1,7,-1
 0 0 l 1,4,-1
0 4291 m 1,8,-1
 0 4352 l 1,9,-1
 671 4352 l 1,10,-1
 671 4291 l 1,11,-1
 0 4291 l 1,8,-1
549 62 m 1,12,-1
 549 4290 l 1,13,-1
 610 4290 l 1,14,-1
 610 62 l 1,15,-1
 549 62 l 1,12,-1
244 62 m 1,16,-1
 244 4290 l 1,17,-1
 366 4290 l 1,18,-1
 366 62 l 1,19,-1
 244 62 l 1,16,-1
EndSplineSet
EndChar

StartChar: bracketleft
Encoding: 91 91 62
Width: 671
GlyphClass: 1
Flags: W
LayerCount: 2
Fore
SplineSet
0 62 m 1,0,-1
 0 4290 l 1,1,-1
 183 4290 l 1,2,-1
 183 62 l 1,3,-1
 0 62 l 1,0,-1
0 0 m 1,4,-1
 0 61 l 1,5,-1
 671 61 l 1,6,-1
 671 0 l 1,7,-1
 0 0 l 1,4,-1
0 4291 m 1,8,-1
 0 4352 l 1,9,-1
 671 4352 l 1,10,-1
 671 4291 l 1,11,-1
 0 4291 l 1,8,-1
549 62 m 1,12,-1
 549 4290 l 1,13,-1
 610 4290 l 1,14,-1
 610 62 l 1,15,-1
 549 62 l 1,12,-1
366 62 m 1,16,-1
 366 4290 l 1,17,-1
 488 4290 l 1,18,-1
 488 62 l 1,19,-1
 366 62 l 1,16,-1
EndSplineSet
EndChar

StartChar: backslash
Encoding: 92 92 63
Width: 671
GlyphClass: 1
Flags: W
LayerCount: 2
Fore
SplineSet
0 62 m 1,0,-1
 0 4290 l 1,1,-1
 183 4290 l 1,2,-1
 183 62 l 1,3,-1
 0 62 l 1,0,-1
0 0 m 1,4,-1
 0 61 l 1,5,-1
 671 61 l 1,6,-1
 671 0 l 1,7,-1
 0 0 l 1,4,-1
0 4291 m 1,8,-1
 0 4352 l 1,9,-1
 671 4352 l 1,10,-1
 671 4291 l 1,11,-1
 0 4291 l 1,8,-1
244 62 m 1,12,-1
 244 4290 l 1,13,-1
 488 4290 l 1,14,-1
 488 62 l 1,15,-1
 244 62 l 1,12,-1
549 62 m 1,16,-1
 549 4290 l 1,17,-1
 610 4290 l 1,18,-1
 610 62 l 1,19,-1
 549 62 l 1,16,-1
EndSplineSet
EndChar

StartChar: bracketright
Encoding: 93 93 64
Width: 671
GlyphClass: 1
Flags: W
LayerCount: 2
Fore
SplineSet
0 62 m 1,0,-1
 0 4290 l 1,1,-1
 122 4290 l 1,2,-1
 122 62 l 1,3,-1
 0 62 l 1,0,-1
0 0 m 1,4,-1
 0 61 l 1,5,-1
 671 61 l 1,6,-1
 671 0 l 1,7,-1
 0 0 l 1,4,-1
0 4291 m 1,8,-1
 0 4352 l 1,9,-1
 671 4352 l 1,10,-1
 671 4291 l 1,11,-1
 0 4291 l 1,8,-1
244 62 m 1,12,-1
 244 4290 l 1,13,-1
 305 4290 l 1,14,-1
 305 62 l 1,15,-1
 244 62 l 1,12,-1
549 62 m 1,16,-1
 549 4290 l 1,17,-1
 610 4290 l 1,18,-1
 610 62 l 1,19,-1
 549 62 l 1,16,-1
EndSplineSet
EndChar

StartChar: asciicircum
Encoding: 94 94 65
Width: 671
GlyphClass: 1
Flags: W
LayerCount: 2
Fore
SplineSet
0 62 m 1,0,-1
 0 4290 l 1,1,-1
 244 4290 l 1,2,-1
 244 62 l 1,3,-1
 0 62 l 1,0,-1
0 0 m 1,4,-1
 0 61 l 1,5,-1
 671 61 l 1,6,-1
 671 0 l 1,7,-1
 0 0 l 1,4,-1
0 4291 m 1,8,-1
 0 4352 l 1,9,-1
 671 4352 l 1,10,-1
 671 4291 l 1,11,-1
 0 4291 l 1,8,-1
427 62 m 1,12,-1
 427 4290 l 1,13,-1
 488 4290 l 1,14,-1
 488 62 l 1,15,-1
 427 62 l 1,12,-1
549 62 m 1,16,-1
 549 4290 l 1,17,-1
 610 4290 l 1,18,-1
 610 62 l 1,19,-1
 549 62 l 1,16,-1
EndSplineSet
EndChar

StartChar: underscore
Encoding: 95 95 66
Width: 671
GlyphClass: 1
Flags: W
LayerCount: 2
Fore
SplineSet
0 62 m 1,0,-1
 0 4290 l 1,1,-1
 61 4290 l 1,2,-1
 61 62 l 1,3,-1
 0 62 l 1,0,-1
0 0 m 1,4,-1
 0 61 l 1,5,-1
 671 61 l 1,6,-1
 671 0 l 1,7,-1
 0 0 l 1,4,-1
0 4291 m 1,8,-1
 0 4352 l 1,9,-1
 671 4352 l 1,10,-1
 671 4291 l 1,11,-1
 0 4291 l 1,8,-1
122 62 m 1,12,-1
 122 4290 l 1,13,-1
 183 4290 l 1,14,-1
 183 62 l 1,15,-1
 122 62 l 1,12,-1
305 62 m 1,16,-1
 305 4290 l 1,17,-1
 427 4290 l 1,18,-1
 427 62 l 1,19,-1
 305 62 l 1,16,-1
EndSplineSet
EndChar

StartChar: grave
Encoding: 96 96 67
Width: 671
GlyphClass: 1
Flags: W
LayerCount: 2
Fore
SplineSet
0 62 m 1,0,-1
 0 4290 l 1,1,-1
 61 4290 l 1,2,-1
 61 62 l 1,3,-1
 0 62 l 1,0,-1
0 0 m 1,4,-1
 0 61 l 1,5,-1
 671 61 l 1,6,-1
 671 0 l 1,7,-1
 0 0 l 1,4,-1
0 4291 m 1,8,-1
 0 4352 l 1,9,-1
 671 4352 l 1,10,-1
 671 4291 l 1,11,-1
 0 4291 l 1,8,-1
122 62 m 1,12,-1
 122 4290 l 1,13,-1
 183 4290 l 1,14,-1
 183 62 l 1,15,-1
 122 62 l 1,12,-1
427 62 m 1,16,-1
 427 4290 l 1,17,-1
 549 4290 l 1,18,-1
 549 62 l 1,19,-1
 427 62 l 1,16,-1
EndSplineSet
EndChar

StartChar: a
Encoding: 97 97 68
Width: 671
GlyphClass: 1
Flags: W
LayerCount: 2
Fore
SplineSet
0 62 m 1,0,-1
 0 4290 l 1,1,-1
 61 4290 l 1,2,-1
 61 62 l 1,3,-1
 0 62 l 1,0,-1
0 0 m 1,4,-1
 0 61 l 1,5,-1
 671 61 l 1,6,-1
 671 0 l 1,7,-1
 0 0 l 1,4,-1
0 4291 m 1,8,-1
 0 4352 l 1,9,-1
 671 4352 l 1,10,-1
 671 4291 l 1,11,-1
 0 4291 l 1,8,-1
183 62 m 1,12,-1
 183 4290 l 1,13,-1
 244 4290 l 1,14,-1
 244 62 l 1,15,-1
 183 62 l 1,12,-1
305 62 m 1,16,-1
 305 4290 l 1,17,-1
 427 4290 l 1,18,-1
 427 62 l 1,19,-1
 305 62 l 1,16,-1
EndSplineSet
EndChar

StartChar: b
Encoding: 98 98 69
Width: 671
GlyphClass: 1
Flags: W
LayerCount: 2
Fore
SplineSet
0 62 m 1,0,-1
 0 4290 l 1,1,-1
 61 4290 l 1,2,-1
 61 62 l 1,3,-1
 0 62 l 1,0,-1
0 0 m 1,4,-1
 0 61 l 1,5,-1
 671 61 l 1,6,-1
 671 0 l 1,7,-1
 0 0 l 1,4,-1
0 4291 m 1,8,-1
 0 4352 l 1,9,-1
 671 4352 l 1,10,-1
 671 4291 l 1,11,-1
 0 4291 l 1,8,-1
183 62 m 1,12,-1
 183 4290 l 1,13,-1
 244 4290 l 1,14,-1
 244 62 l 1,15,-1
 183 62 l 1,12,-1
488 62 m 1,16,-1
 488 4290 l 1,17,-1
 610 4290 l 1,18,-1
 610 62 l 1,19,-1
 488 62 l 1,16,-1
EndSplineSet
EndChar

StartChar: c
Encoding: 99 99 70
Width: 671
GlyphClass: 1
Flags: W
LayerCount: 2
Fore
SplineSet
0 62 m 1,0,-1
 0 4290 l 1,1,-1
 61 4290 l 1,2,-1
 61 62 l 1,3,-1
 0 62 l 1,0,-1
0 0 m 1,4,-1
 0 61 l 1,5,-1
 671 61 l 1,6,-1
 671 0 l 1,7,-1
 0 0 l 1,4,-1
0 4291 m 1,8,-1
 0 4352 l 1,9,-1
 671 4352 l 1,10,-1
 671 4291 l 1,11,-1
 0 4291 l 1,8,-1
305 62 m 1,12,-1
 305 4290 l 1,13,-1
 366 4290 l 1,14,-1
 366 62 l 1,15,-1
 305 62 l 1,12,-1
427 62 m 1,16,-1
 427 4290 l 1,17,-1
 549 4290 l 1,18,-1
 549 62 l 1,19,-1
 427 62 l 1,16,-1
EndSplineSet
EndChar

StartChar: d
Encoding: 100 100 71
Width: 671
GlyphClass: 1
Flags: W
LayerCount: 2
Fore
SplineSet
0 62 m 1,0,-1
 0 4290 l 1,1,-1
 61 4290 l 1,2,-1
 61 62 l 1,3,-1
 0 62 l 1,0,-1
0 0 m 1,4,-1
 0 61 l 1,5,-1
 671 61 l 1,6,-1
 671 0 l 1,7,-1
 0 0 l 1,4,-1
0 4291 m 1,8,-1
 0 4352 l 1,9,-1
 671 4352 l 1,10,-1
 671 4291 l 1,11,-1
 0 4291 l 1,8,-1
305 62 m 1,12,-1
 305 4290 l 1,13,-1
 366 4290 l 1,14,-1
 366 62 l 1,15,-1
 305 62 l 1,12,-1
488 62 m 1,16,-1
 488 4290 l 1,17,-1
 610 4290 l 1,18,-1
 610 62 l 1,19,-1
 488 62 l 1,16,-1
EndSplineSet
EndChar

StartChar: e
Encoding: 101 101 72
Width: 671
GlyphClass: 1
Flags: W
LayerCount: 2
Fore
SplineSet
0 62 m 1,0,-1
 0 4290 l 1,1,-1
 61 4290 l 1,2,-1
 61 62 l 1,3,-1
 0 62 l 1,0,-1
0 0 m 1,4,-1
 0 61 l 1,5,-1
 671 61 l 1,6,-1
 671 0 l 1,7,-1
 0 0 l 1,4,-1
0 4291 m 1,8,-1
 0 4352 l 1,9,-1
 671 4352 l 1,10,-1
 671 4291 l 1,11,-1
 0 4291 l 1,8,-1
366 62 m 1,12,-1
 366 4290 l 1,13,-1
 427 4290 l 1,14,-1
 427 62 l 1,15,-1
 366 62 l 1,12,-1
122 62 m 1,16,-1
 122 4290 l 1,17,-1
 244 4290 l 1,18,-1
 244 62 l 1,19,-1
 122 62 l 1,16,-1
EndSplineSet
EndChar

StartChar: f
Encoding: 102 102 73
Width: 671
GlyphClass: 1
Flags: W
LayerCount: 2
Fore
SplineSet
0 62 m 1,0,-1
 0 4290 l 1,1,-1
 61 4290 l 1,2,-1
 61 62 l 1,3,-1
 0 62 l 1,0,-1
0 0 m 1,4,-1
 0 61 l 1,5,-1
 671 61 l 1,6,-1
 671 0 l 1,7,-1
 0 0 l 1,4,-1
0 4291 m 1,8,-1
 0 4352 l 1,9,-1
 671 4352 l 1,10,-1
 671 4291 l 1,11,-1
 0 4291 l 1,8,-1
488 62 m 1,12,-1
 488 4290 l 1,13,-1
 549 4290 l 1,14,-1
 549 62 l 1,15,-1
 488 62 l 1,12,-1
122 62 m 1,16,-1
 122 4290 l 1,17,-1
 244 4290 l 1,18,-1
 244 62 l 1,19,-1
 122 62 l 1,16,-1
EndSplineSet
EndChar

StartChar: g
Encoding: 103 103 74
Width: 671
GlyphClass: 1
Flags: W
LayerCount: 2
Fore
SplineSet
0 62 m 1,0,-1
 0 4290 l 1,1,-1
 61 4290 l 1,2,-1
 61 62 l 1,3,-1
 0 62 l 1,0,-1
0 0 m 1,4,-1
 0 61 l 1,5,-1
 671 61 l 1,6,-1
 671 0 l 1,7,-1
 0 0 l 1,4,-1
0 4291 m 1,8,-1
 0 4352 l 1,9,-1
 671 4352 l 1,10,-1
 671 4291 l 1,11,-1
 0 4291 l 1,8,-1
366 62 m 1,12,-1
 366 4290 l 1,13,-1
 427 4290 l 1,14,-1
 427 62 l 1,15,-1
 366 62 l 1,12,-1
183 62 m 1,16,-1
 183 4290 l 1,17,-1
 305 4290 l 1,18,-1
 305 62 l 1,19,-1
 183 62 l 1,16,-1
EndSplineSet
EndChar

StartChar: h
Encoding: 104 104 75
Width: 671
GlyphClass: 1
Flags: W
LayerCount: 2
Fore
SplineSet
0 62 m 1,0,-1
 0 4290 l 1,1,-1
 61 4290 l 1,2,-1
 61 62 l 1,3,-1
 0 62 l 1,0,-1
0 0 m 1,4,-1
 0 61 l 1,5,-1
 671 61 l 1,6,-1
 671 0 l 1,7,-1
 0 0 l 1,4,-1
0 4291 m 1,8,-1
 0 4352 l 1,9,-1
 671 4352 l 1,10,-1
 671 4291 l 1,11,-1
 0 4291 l 1,8,-1
549 62 m 1,12,-1
 549 4290 l 1,13,-1
 610 4290 l 1,14,-1
 610 62 l 1,15,-1
 549 62 l 1,12,-1
183 62 m 1,16,-1
 183 4290 l 1,17,-1
 305 4290 l 1,18,-1
 305 62 l 1,19,-1
 183 62 l 1,16,-1
EndSplineSet
EndChar

StartChar: i
Encoding: 105 105 76
Width: 671
GlyphClass: 1
Flags: W
LayerCount: 2
Fore
SplineSet
0 62 m 1,0,-1
 0 4290 l 1,1,-1
 61 4290 l 1,2,-1
 61 62 l 1,3,-1
 0 62 l 1,0,-1
0 0 m 1,4,-1
 0 61 l 1,5,-1
 671 61 l 1,6,-1
 671 0 l 1,7,-1
 0 0 l 1,4,-1
0 4291 m 1,8,-1
 0 4352 l 1,9,-1
 671 4352 l 1,10,-1
 671 4291 l 1,11,-1
 0 4291 l 1,8,-1
488 62 m 1,12,-1
 488 4290 l 1,13,-1
 549 4290 l 1,14,-1
 549 62 l 1,15,-1
 488 62 l 1,12,-1
305 62 m 1,16,-1
 305 4290 l 1,17,-1
 427 4290 l 1,18,-1
 427 62 l 1,19,-1
 305 62 l 1,16,-1
EndSplineSet
EndChar

StartChar: j
Encoding: 106 106 77
Width: 671
GlyphClass: 1
Flags: W
LayerCount: 2
Fore
SplineSet
0 62 m 1,0,-1
 0 4290 l 1,1,-1
 61 4290 l 1,2,-1
 61 62 l 1,3,-1
 0 62 l 1,0,-1
0 0 m 1,4,-1
 0 61 l 1,5,-1
 671 61 l 1,6,-1
 671 0 l 1,7,-1
 0 0 l 1,4,-1
0 4291 m 1,8,-1
 0 4352 l 1,9,-1
 671 4352 l 1,10,-1
 671 4291 l 1,11,-1
 0 4291 l 1,8,-1
549 62 m 1,12,-1
 549 4290 l 1,13,-1
 610 4290 l 1,14,-1
 610 62 l 1,15,-1
 549 62 l 1,12,-1
305 62 m 1,16,-1
 305 4290 l 1,17,-1
 427 4290 l 1,18,-1
 427 62 l 1,19,-1
 305 62 l 1,16,-1
EndSplineSet
EndChar

StartChar: k
Encoding: 107 107 78
Width: 671
GlyphClass: 1
Flags: W
LayerCount: 2
Fore
SplineSet
549 62 m 1,0,-1
 549 4290 l 1,1,-1
 610 4290 l 1,2,-1
 610 62 l 1,3,-1
 549 62 l 1,0,-1
0 0 m 1,4,-1
 0 61 l 1,5,-1
 671 61 l 1,6,-1
 671 0 l 1,7,-1
 0 0 l 1,4,-1
0 4291 m 1,8,-1
 0 4352 l 1,9,-1
 671 4352 l 1,10,-1
 671 4291 l 1,11,-1
 0 4291 l 1,8,-1
366 62 m 1,12,-1
 366 4290 l 1,13,-1
 427 4290 l 1,14,-1
 427 62 l 1,15,-1
 366 62 l 1,12,-1
0 62 m 1,16,-1
 0 4290 l 1,17,-1
 122 4290 l 1,18,-1
 122 62 l 1,19,-1
 0 62 l 1,16,-1
EndSplineSet
EndChar

StartChar: l
Encoding: 108 108 79
Width: 671
GlyphClass: 1
Flags: W
LayerCount: 2
Fore
SplineSet
366 62 m 1,0,-1
 366 4290 l 1,1,-1
 427 4290 l 1,2,-1
 427 62 l 1,3,-1
 366 62 l 1,0,-1
0 0 m 1,4,-1
 0 61 l 1,5,-1
 671 61 l 1,6,-1
 671 0 l 1,7,-1
 0 0 l 1,4,-1
0 4291 m 1,8,-1
 0 4352 l 1,9,-1
 671 4352 l 1,10,-1
 671 4291 l 1,11,-1
 0 4291 l 1,8,-1
244 62 m 1,12,-1
 244 4290 l 1,13,-1
 305 4290 l 1,14,-1
 305 62 l 1,15,-1
 244 62 l 1,12,-1
0 62 m 1,16,-1
 0 4290 l 1,17,-1
 122 4290 l 1,18,-1
 122 62 l 1,19,-1
 0 62 l 1,16,-1
EndSplineSet
EndChar

StartChar: m
Encoding: 109 109 80
Width: 671
GlyphClass: 1
Flags: W
LayerCount: 2
Fore
SplineSet
549 62 m 1,0,-1
 549 4290 l 1,1,-1
 610 4290 l 1,2,-1
 610 62 l 1,3,-1
 549 62 l 1,0,-1
0 0 m 1,4,-1
 0 61 l 1,5,-1
 671 61 l 1,6,-1
 671 0 l 1,7,-1
 0 0 l 1,4,-1
0 4291 m 1,8,-1
 0 4352 l 1,9,-1
 671 4352 l 1,10,-1
 671 4291 l 1,11,-1
 0 4291 l 1,8,-1
305 62 m 1,12,-1
 305 4290 l 1,13,-1
 488 4290 l 1,14,-1
 488 62 l 1,15,-1
 305 62 l 1,12,-1
0 62 m 1,16,-1
 0 4290 l 1,17,-1
 244 4290 l 1,18,-1
 244 62 l 1,19,-1
 0 62 l 1,16,-1
EndSplineSet
EndChar

StartChar: n
Encoding: 110 110 81
Width: 671
GlyphClass: 1
Flags: W
LayerCount: 2
Fore
SplineSet
488 62 m 1,0,-1
 488 4290 l 1,1,-1
 549 4290 l 1,2,-1
 549 62 l 1,3,-1
 488 62 l 1,0,-1
0 0 m 1,4,-1
 0 61 l 1,5,-1
 671 61 l 1,6,-1
 671 0 l 1,7,-1
 0 0 l 1,4,-1
0 4291 m 1,8,-1
 0 4352 l 1,9,-1
 671 4352 l 1,10,-1
 671 4291 l 1,11,-1
 0 4291 l 1,8,-1
366 62 m 1,12,-1
 366 4290 l 1,13,-1
 427 4290 l 1,14,-1
 427 62 l 1,15,-1
 366 62 l 1,12,-1
0 62 m 1,16,-1
 0 4290 l 1,17,-1
 122 4290 l 1,18,-1
 122 62 l 1,19,-1
 0 62 l 1,16,-1
EndSplineSet
EndChar

StartChar: o
Encoding: 111 111 82
Width: 671
GlyphClass: 1
Flags: W
LayerCount: 2
Fore
SplineSet
0 62 m 1,0,-1
 0 4290 l 1,1,-1
 61 4290 l 1,2,-1
 61 62 l 1,3,-1
 0 62 l 1,0,-1
0 0 m 1,4,-1
 0 61 l 1,5,-1
 671 61 l 1,6,-1
 671 0 l 1,7,-1
 0 0 l 1,4,-1
0 4291 m 1,8,-1
 0 4352 l 1,9,-1
 671 4352 l 1,10,-1
 671 4291 l 1,11,-1
 0 4291 l 1,8,-1
244 62 m 1,12,-1
 244 4290 l 1,13,-1
 488 4290 l 1,14,-1
 488 62 l 1,15,-1
 244 62 l 1,12,-1
549 62 m 1,16,-1
 549 4290 l 1,17,-1
 610 4290 l 1,18,-1
 610 62 l 1,19,-1
 549 62 l 1,16,-1
EndSplineSet
EndChar

StartChar: p
Encoding: 112 112 83
Width: 671
GlyphClass: 1
Flags: W
LayerCount: 2
Fore
SplineSet
0 62 m 1,0,-1
 0 4290 l 1,1,-1
 61 4290 l 1,2,-1
 61 62 l 1,3,-1
 0 62 l 1,0,-1
0 0 m 1,4,-1
 0 61 l 1,5,-1
 671 61 l 1,6,-1
 671 0 l 1,7,-1
 0 0 l 1,4,-1
0 4291 m 1,8,-1
 0 4352 l 1,9,-1
 671 4352 l 1,10,-1
 671 4291 l 1,11,-1
 0 4291 l 1,8,-1
305 62 m 1,12,-1
 305 4290 l 1,13,-1
 549 4290 l 1,14,-1
 549 62 l 1,15,-1
 305 62 l 1,12,-1
122 62 m 1,16,-1
 122 4290 l 1,17,-1
 183 4290 l 1,18,-1
 183 62 l 1,19,-1
 122 62 l 1,16,-1
EndSplineSet
EndChar

StartChar: q
Encoding: 113 113 84
Width: 671
GlyphClass: 1
Flags: W
LayerCount: 2
Fore
SplineSet
0 62 m 1,0,-1
 0 4290 l 1,1,-1
 61 4290 l 1,2,-1
 61 62 l 1,3,-1
 0 62 l 1,0,-1
0 0 m 1,4,-1
 0 61 l 1,5,-1
 671 61 l 1,6,-1
 671 0 l 1,7,-1
 0 0 l 1,4,-1
0 4291 m 1,8,-1
 0 4352 l 1,9,-1
 671 4352 l 1,10,-1
 671 4291 l 1,11,-1
 0 4291 l 1,8,-1
305 62 m 1,12,-1
 305 4290 l 1,13,-1
 549 4290 l 1,14,-1
 549 62 l 1,15,-1
 305 62 l 1,12,-1
183 62 m 1,16,-1
 183 4290 l 1,17,-1
 244 4290 l 1,18,-1
 244 62 l 1,19,-1
 183 62 l 1,16,-1
EndSplineSet
EndChar

StartChar: r
Encoding: 114 114 85
Width: 671
GlyphClass: 1
Flags: W
LayerCount: 2
Fore
SplineSet
0 62 m 1,0,-1
 0 4290 l 1,1,-1
 61 4290 l 1,2,-1
 61 62 l 1,3,-1
 0 62 l 1,0,-1
0 0 m 1,4,-1
 0 61 l 1,5,-1
 671 61 l 1,6,-1
 671 0 l 1,7,-1
 0 0 l 1,4,-1
0 4291 m 1,8,-1
 0 4352 l 1,9,-1
 671 4352 l 1,10,-1
 671 4291 l 1,11,-1
 0 4291 l 1,8,-1
366 62 m 1,12,-1
 366 4290 l 1,13,-1
 610 4290 l 1,14,-1
 610 62 l 1,15,-1
 366 62 l 1,12,-1
183 62 m 1,16,-1
 183 4290 l 1,17,-1
 244 4290 l 1,18,-1
 244 62 l 1,19,-1
 183 62 l 1,16,-1
EndSplineSet
EndChar

StartChar: s
Encoding: 115 115 86
Width: 671
GlyphClass: 1
Flags: W
LayerCount: 2
Fore
SplineSet
0 62 m 1,0,-1
 0 4290 l 1,1,-1
 61 4290 l 1,2,-1
 61 62 l 1,3,-1
 0 62 l 1,0,-1
0 0 m 1,4,-1
 0 61 l 1,5,-1
 671 61 l 1,6,-1
 671 0 l 1,7,-1
 0 0 l 1,4,-1
0 4291 m 1,8,-1
 0 4352 l 1,9,-1
 671 4352 l 1,10,-1
 671 4291 l 1,11,-1
 0 4291 l 1,8,-1
122 62 m 1,12,-1
 122 4290 l 1,13,-1
 366 4290 l 1,14,-1
 366 62 l 1,15,-1
 122 62 l 1,12,-1
488 62 m 1,16,-1
 488 4290 l 1,17,-1
 549 4290 l 1,18,-1
 549 62 l 1,19,-1
 488 62 l 1,16,-1
EndSplineSet
EndChar

StartChar: t
Encoding: 116 116 87
Width: 671
GlyphClass: 1
Flags: W
LayerCount: 2
Fore
SplineSet
0 62 m 1,0,-1
 0 4290 l 1,1,-1
 61 4290 l 1,2,-1
 61 62 l 1,3,-1
 0 62 l 1,0,-1
0 0 m 1,4,-1
 0 61 l 1,5,-1
 671 61 l 1,6,-1
 671 0 l 1,7,-1
 0 0 l 1,4,-1
0 4291 m 1,8,-1
 0 4352 l 1,9,-1
 671 4352 l 1,10,-1
 671 4291 l 1,11,-1
 0 4291 l 1,8,-1
183 62 m 1,12,-1
 183 4290 l 1,13,-1
 427 4290 l 1,14,-1
 427 62 l 1,15,-1
 183 62 l 1,12,-1
488 62 m 1,16,-1
 488 4290 l 1,17,-1
 549 4290 l 1,18,-1
 549 62 l 1,19,-1
 488 62 l 1,16,-1
EndSplineSet
EndChar

StartChar: u
Encoding: 117 117 88
Width: 671
GlyphClass: 1
Flags: W
LayerCount: 2
Fore
SplineSet
0 62 m 1,0,-1
 0 4290 l 1,1,-1
 61 4290 l 1,2,-1
 61 62 l 1,3,-1
 0 62 l 1,0,-1
0 0 m 1,4,-1
 0 61 l 1,5,-1
 671 61 l 1,6,-1
 671 0 l 1,7,-1
 0 0 l 1,4,-1
0 4291 m 1,8,-1
 0 4352 l 1,9,-1
 671 4352 l 1,10,-1
 671 4291 l 1,11,-1
 0 4291 l 1,8,-1
183 62 m 1,12,-1
 183 4290 l 1,13,-1
 427 4290 l 1,14,-1
 427 62 l 1,15,-1
 183 62 l 1,12,-1
549 62 m 1,16,-1
 549 4290 l 1,17,-1
 610 4290 l 1,18,-1
 610 62 l 1,19,-1
 549 62 l 1,16,-1
EndSplineSet
EndChar

StartChar: v
Encoding: 118 118 89
Width: 671
GlyphClass: 1
Flags: W
LayerCount: 2
Fore
SplineSet
305 62 m 1,0,-1
 305 4290 l 1,1,-1
 366 4290 l 1,2,-1
 366 62 l 1,3,-1
 305 62 l 1,0,-1
0 0 m 1,4,-1
 0 61 l 1,5,-1
 671 61 l 1,6,-1
 671 0 l 1,7,-1
 0 0 l 1,4,-1
0 4291 m 1,8,-1
 0 4352 l 1,9,-1
 671 4352 l 1,10,-1
 671 4291 l 1,11,-1
 0 4291 l 1,8,-1
0 62 m 1,12,-1
 0 4290 l 1,13,-1
 244 4290 l 1,14,-1
 244 62 l 1,15,-1
 0 62 l 1,12,-1
488 62 m 1,16,-1
 488 4290 l 1,17,-1
 549 4290 l 1,18,-1
 549 62 l 1,19,-1
 488 62 l 1,16,-1
EndSplineSet
EndChar

StartChar: w
Encoding: 119 119 90
Width: 671
GlyphClass: 1
Flags: W
LayerCount: 2
Fore
SplineSet
366 62 m 1,0,-1
 366 4290 l 1,1,-1
 427 4290 l 1,2,-1
 427 62 l 1,3,-1
 366 62 l 1,0,-1
0 0 m 1,4,-1
 0 61 l 1,5,-1
 671 61 l 1,6,-1
 671 0 l 1,7,-1
 0 0 l 1,4,-1
0 4291 m 1,8,-1
 0 4352 l 1,9,-1
 671 4352 l 1,10,-1
 671 4291 l 1,11,-1
 0 4291 l 1,8,-1
0 62 m 1,12,-1
 0 4290 l 1,13,-1
 244 4290 l 1,14,-1
 244 62 l 1,15,-1
 0 62 l 1,12,-1
488 62 m 1,16,-1
 488 4290 l 1,17,-1
 549 4290 l 1,18,-1
 549 62 l 1,19,-1
 488 62 l 1,16,-1
EndSplineSet
EndChar

StartChar: x
Encoding: 120 120 91
Width: 671
GlyphClass: 1
Flags: W
LayerCount: 2
Fore
SplineSet
366 62 m 1,0,-1
 366 4290 l 1,1,-1
 427 4290 l 1,2,-1
 427 62 l 1,3,-1
 366 62 l 1,0,-1
0 0 m 1,4,-1
 0 61 l 1,5,-1
 671 61 l 1,6,-1
 671 0 l 1,7,-1
 0 0 l 1,4,-1
0 4291 m 1,8,-1
 0 4352 l 1,9,-1
 671 4352 l 1,10,-1
 671 4291 l 1,11,-1
 0 4291 l 1,8,-1
0 62 m 1,12,-1
 0 4290 l 1,13,-1
 244 4290 l 1,14,-1
 244 62 l 1,15,-1
 0 62 l 1,12,-1
549 62 m 1,16,-1
 549 4290 l 1,17,-1
 610 4290 l 1,18,-1
 610 62 l 1,19,-1
 549 62 l 1,16,-1
EndSplineSet
EndChar

StartChar: y
Encoding: 121 121 92
Width: 671
GlyphClass: 1
Flags: W
LayerCount: 2
Fore
SplineSet
0 62 m 1,0,-1
 0 4290 l 1,1,-1
 122 4290 l 1,2,-1
 122 62 l 1,3,-1
 0 62 l 1,0,-1
0 0 m 1,4,-1
 0 61 l 1,5,-1
 671 61 l 1,6,-1
 671 0 l 1,7,-1
 0 0 l 1,4,-1
0 4291 m 1,8,-1
 0 4352 l 1,9,-1
 671 4352 l 1,10,-1
 671 4291 l 1,11,-1
 0 4291 l 1,8,-1
183 62 m 1,12,-1
 183 4290 l 1,13,-1
 305 4290 l 1,14,-1
 305 62 l 1,15,-1
 183 62 l 1,12,-1
366 62 m 1,16,-1
 366 4290 l 1,17,-1
 610 4290 l 1,18,-1
 610 62 l 1,19,-1
 366 62 l 1,16,-1
EndSplineSet
EndChar

StartChar: z
Encoding: 122 122 93
Width: 671
GlyphClass: 1
Flags: W
LayerCount: 2
Fore
SplineSet
0 62 m 1,0,-1
 0 4290 l 1,1,-1
 122 4290 l 1,2,-1
 122 62 l 1,3,-1
 0 62 l 1,0,-1
0 0 m 1,4,-1
 0 61 l 1,5,-1
 671 61 l 1,6,-1
 671 0 l 1,7,-1
 0 0 l 1,4,-1
0 4291 m 1,8,-1
 0 4352 l 1,9,-1
 671 4352 l 1,10,-1
 671 4291 l 1,11,-1
 0 4291 l 1,8,-1
183 62 m 1,12,-1
 183 4290 l 1,13,-1
 427 4290 l 1,14,-1
 427 62 l 1,15,-1
 183 62 l 1,12,-1
488 62 m 1,16,-1
 488 4290 l 1,17,-1
 610 4290 l 1,18,-1
 610 62 l 1,19,-1
 488 62 l 1,16,-1
EndSplineSet
EndChar

StartChar: braceleft
Encoding: 123 123 94
Width: 671
GlyphClass: 1
Flags: W
LayerCount: 2
Fore
SplineSet
0 62 m 1,0,-1
 0 4290 l 1,1,-1
 244 4290 l 1,2,-1
 244 62 l 1,3,-1
 0 62 l 1,0,-1
0 0 m 1,4,-1
 0 61 l 1,5,-1
 671 61 l 1,6,-1
 671 0 l 1,7,-1
 0 0 l 1,4,-1
0 4291 m 1,8,-1
 0 4352 l 1,9,-1
 671 4352 l 1,10,-1
 671 4291 l 1,11,-1
 0 4291 l 1,8,-1
305 62 m 1,12,-1
 305 4290 l 1,13,-1
 427 4290 l 1,14,-1
 427 62 l 1,15,-1
 305 62 l 1,12,-1
488 62 m 1,16,-1
 488 4290 l 1,17,-1
 610 4290 l 1,18,-1
 610 62 l 1,19,-1
 488 62 l 1,16,-1
EndSplineSet
EndChar

StartChar: bar
Encoding: 124 124 95
Width: 671
GlyphClass: 1
Flags: W
LayerCount: 2
Fore
SplineSet
0 62 m 1,0,-1
 0 4290 l 1,1,-1
 61 4290 l 1,2,-1
 61 62 l 1,3,-1
 0 62 l 1,0,-1
0 0 m 1,4,-1
 0 61 l 1,5,-1
 671 61 l 1,6,-1
 671 0 l 1,7,-1
 0 0 l 1,4,-1
0 4291 m 1,8,-1
 0 4352 l 1,9,-1
 671 4352 l 1,10,-1
 671 4291 l 1,11,-1
 0 4291 l 1,8,-1
122 62 m 1,12,-1
 122 4290 l 1,13,-1
 183 4290 l 1,14,-1
 183 62 l 1,15,-1
 122 62 l 1,12,-1
244 62 m 1,16,-1
 244 4290 l 1,17,-1
 488 4290 l 1,18,-1
 488 62 l 1,19,-1
 244 62 l 1,16,-1
EndSplineSet
EndChar

StartChar: braceright
Encoding: 125 125 96
Width: 671
GlyphClass: 1
Flags: W
LayerCount: 2
Fore
SplineSet
0 62 m 1,0,-1
 0 4290 l 1,1,-1
 61 4290 l 1,2,-1
 61 62 l 1,3,-1
 0 62 l 1,0,-1
0 0 m 1,4,-1
 0 61 l 1,5,-1
 671 61 l 1,6,-1
 671 0 l 1,7,-1
 0 0 l 1,4,-1
0 4291 m 1,8,-1
 0 4352 l 1,9,-1
 671 4352 l 1,10,-1
 671 4291 l 1,11,-1
 0 4291 l 1,8,-1
122 62 m 1,12,-1
 122 4290 l 1,13,-1
 183 4290 l 1,14,-1
 183 62 l 1,15,-1
 122 62 l 1,12,-1
366 62 m 1,16,-1
 366 4290 l 1,17,-1
 610 4290 l 1,18,-1
 610 62 l 1,19,-1
 366 62 l 1,16,-1
EndSplineSet
EndChar

StartChar: asciitilde
Encoding: 126 126 97
Width: 671
GlyphClass: 1
Flags: W
LayerCount: 2
Fore
SplineSet
0 62 m 1,0,-1
 0 4290 l 1,1,-1
 61 4290 l 1,2,-1
 61 62 l 1,3,-1
 0 62 l 1,0,-1
0 0 m 1,4,-1
 0 61 l 1,5,-1
 671 61 l 1,6,-1
 671 0 l 1,7,-1
 0 0 l 1,4,-1
0 4291 m 1,8,-1
 0 4352 l 1,9,-1
 671 4352 l 1,10,-1
 671 4291 l 1,11,-1
 0 4291 l 1,8,-1
244 62 m 1,12,-1
 244 4290 l 1,13,-1
 305 4290 l 1,14,-1
 305 62 l 1,15,-1
 244 62 l 1,12,-1
366 62 m 1,16,-1
 366 4290 l 1,17,-1
 610 4290 l 1,18,-1
 610 62 l 1,19,-1
 366 62 l 1,16,-1
EndSplineSet
EndChar

StartChar: ctrl-del
Encoding: 127 127 98
Width: 671
GlyphClass: 1
Flags: W
LayerCount: 2
Fore
SplineSet
0 62 m 1,0,-1
 0 4290 l 1,1,-1
 61 4290 l 1,2,-1
 61 62 l 1,3,-1
 0 62 l 1,0,-1
0 0 m 1,4,-1
 0 61 l 1,5,-1
 671 61 l 1,6,-1
 671 0 l 1,7,-1
 0 0 l 1,4,-1
0 4291 m 1,8,-1
 0 4352 l 1,9,-1
 671 4352 l 1,10,-1
 671 4291 l 1,11,-1
 0 4291 l 1,8,-1
427 62 m 1,12,-1
 427 4290 l 1,13,-1
 488 4290 l 1,14,-1
 488 62 l 1,15,-1
 427 62 l 1,12,-1
122 62 m 1,16,-1
 122 4290 l 1,17,-1
 366 4290 l 1,18,-1
 366 62 l 1,19,-1
 122 62 l 1,16,-1
EndSplineSet
EndChar

StartChar: FNC3
Encoding: 128 196 99
Width: 671
GlyphClass: 1
Flags: W
LayerCount: 2
Fore
SplineSet
0 62 m 1,0,-1
 0 4290 l 1,1,-1
 61 4290 l 1,2,-1
 61 62 l 1,3,-1
 0 62 l 1,0,-1
0 0 m 1,4,-1
 0 61 l 1,5,-1
 671 61 l 1,6,-1
 671 0 l 1,7,-1
 0 0 l 1,4,-1
0 4291 m 1,8,-1
 0 4352 l 1,9,-1
 671 4352 l 1,10,-1
 671 4291 l 1,11,-1
 0 4291 l 1,8,-1
549 62 m 1,12,-1
 549 4290 l 1,13,-1
 610 4290 l 1,14,-1
 610 62 l 1,15,-1
 549 62 l 1,12,-1
122 62 m 1,16,-1
 122 4290 l 1,17,-1
 366 4290 l 1,18,-1
 366 62 l 1,19,-1
 122 62 l 1,16,-1
EndSplineSet
EndChar

StartChar: FNC2
Encoding: 129 197 100
Width: 671
GlyphClass: 1
Flags: W
LayerCount: 2
Fore
SplineSet
305 62 m 1,0,-1
 305 4290 l 1,1,-1
 366 4290 l 1,2,-1
 366 62 l 1,3,-1
 305 62 l 1,0,-1
0 0 m 1,4,-1
 0 61 l 1,5,-1
 671 61 l 1,6,-1
 671 0 l 1,7,-1
 0 0 l 1,4,-1
0 4291 m 1,8,-1
 0 4352 l 1,9,-1
 671 4352 l 1,10,-1
 671 4291 l 1,11,-1
 0 4291 l 1,8,-1
427 62 m 1,12,-1
 427 4290 l 1,13,-1
 488 4290 l 1,14,-1
 488 62 l 1,15,-1
 427 62 l 1,12,-1
0 62 m 1,16,-1
 0 4290 l 1,17,-1
 244 4290 l 1,18,-1
 244 62 l 1,19,-1
 0 62 l 1,16,-1
EndSplineSet
EndChar

StartChar: SHIFT
Encoding: 130 199 101
Width: 671
GlyphClass: 1
Flags: W
LayerCount: 2
Fore
SplineSet
305 62 m 1,0,-1
 305 4290 l 1,1,-1
 366 4290 l 1,2,-1
 366 62 l 1,3,-1
 305 62 l 1,0,-1
0 0 m 1,4,-1
 0 61 l 1,5,-1
 671 61 l 1,6,-1
 671 0 l 1,7,-1
 0 0 l 1,4,-1
0 4291 m 1,8,-1
 0 4352 l 1,9,-1
 671 4352 l 1,10,-1
 671 4291 l 1,11,-1
 0 4291 l 1,8,-1
549 62 m 1,12,-1
 549 4290 l 1,13,-1
 610 4290 l 1,14,-1
 610 62 l 1,15,-1
 549 62 l 1,12,-1
0 62 m 1,16,-1
 0 4290 l 1,17,-1
 244 4290 l 1,18,-1
 244 62 l 1,19,-1
 0 62 l 1,16,-1
EndSplineSet
EndChar

StartChar: CODEC
Encoding: 131 201 102
Width: 671
GlyphClass: 1
Flags: W
LayerCount: 2
Fore
SplineSet
0 62 m 1,0,-1
 0 4290 l 1,1,-1
 61 4290 l 1,2,-1
 61 62 l 1,3,-1
 0 62 l 1,0,-1
0 0 m 1,4,-1
 0 61 l 1,5,-1
 671 61 l 1,6,-1
 671 0 l 1,7,-1
 0 0 l 1,4,-1
0 4291 m 1,8,-1
 0 4352 l 1,9,-1
 671 4352 l 1,10,-1
 671 4291 l 1,11,-1
 0 4291 l 1,8,-1
122 62 m 1,12,-1
 122 4290 l 1,13,-1
 305 4290 l 1,14,-1
 305 62 l 1,15,-1
 122 62 l 1,12,-1
366 62 m 1,16,-1
 366 4290 l 1,17,-1
 610 4290 l 1,18,-1
 610 62 l 1,19,-1
 366 62 l 1,16,-1
EndSplineSet
EndChar

StartChar: CODEB
Encoding: 132 209 103
Width: 671
GlyphClass: 1
Flags: W
LayerCount: 2
Fore
SplineSet
0 62 m 1,0,-1
 0 4290 l 1,1,-1
 61 4290 l 1,2,-1
 61 62 l 1,3,-1
 0 62 l 1,0,-1
0 0 m 1,4,-1
 0 61 l 1,5,-1
 671 61 l 1,6,-1
 671 0 l 1,7,-1
 0 0 l 1,4,-1
0 4291 m 1,8,-1
 0 4352 l 1,9,-1
 671 4352 l 1,10,-1
 671 4291 l 1,11,-1
 0 4291 l 1,8,-1
122 62 m 1,12,-1
 122 4290 l 1,13,-1
 366 4290 l 1,14,-1
 366 62 l 1,15,-1
 122 62 l 1,12,-1
427 62 m 1,16,-1
 427 4290 l 1,17,-1
 610 4290 l 1,18,-1
 610 62 l 1,19,-1
 427 62 l 1,16,-1
EndSplineSet
EndChar

StartChar: CODEA
Encoding: 133 214 104
Width: 671
GlyphClass: 1
Flags: W
LayerCount: 2
Fore
SplineSet
0 62 m 1,0,-1
 0 4290 l 1,1,-1
 183 4290 l 1,2,-1
 183 62 l 1,3,-1
 0 62 l 1,0,-1
0 0 m 1,4,-1
 0 61 l 1,5,-1
 671 61 l 1,6,-1
 671 0 l 1,7,-1
 0 0 l 1,4,-1
0 4291 m 1,8,-1
 0 4352 l 1,9,-1
 671 4352 l 1,10,-1
 671 4291 l 1,11,-1
 0 4291 l 1,8,-1
244 62 m 1,12,-1
 244 4290 l 1,13,-1
 305 4290 l 1,14,-1
 305 62 l 1,15,-1
 244 62 l 1,12,-1
366 62 m 1,16,-1
 366 4290 l 1,17,-1
 610 4290 l 1,18,-1
 610 62 l 1,19,-1
 366 62 l 1,16,-1
EndSplineSet
EndChar

StartChar: FNC1
Encoding: 134 220 105
Width: 671
GlyphClass: 1
Flags: W
LayerCount: 2
Fore
SplineSet
0 62 m 1,0,-1
 0 4290 l 1,1,-1
 244 4290 l 1,2,-1
 244 62 l 1,3,-1
 0 62 l 1,0,-1
0 0 m 1,4,-1
 0 61 l 1,5,-1
 671 61 l 1,6,-1
 671 0 l 1,7,-1
 0 0 l 1,4,-1
0 4291 m 1,8,-1
 0 4352 l 1,9,-1
 671 4352 l 1,10,-1
 671 4291 l 1,11,-1
 0 4291 l 1,8,-1
305 62 m 1,12,-1
 305 4290 l 1,13,-1
 366 4290 l 1,14,-1
 366 62 l 1,15,-1
 305 62 l 1,12,-1
427 62 m 1,16,-1
 427 4290 l 1,17,-1
 610 4290 l 1,18,-1
 610 62 l 1,19,-1
 427 62 l 1,16,-1
EndSplineSet
EndChar

StartChar: STARTA
Encoding: 135 225 106
Width: 671
GlyphClass: 1
Flags: W
LayerCount: 2
Fore
SplineSet
183 62 m 1,0,-1
 183 4290 l 1,1,-1
 244 4290 l 1,2,-1
 244 62 l 1,3,-1
 183 62 l 1,0,-1
0 0 m 1,4,-1
 0 61 l 1,5,-1
 671 61 l 1,6,-1
 671 0 l 1,7,-1
 0 0 l 1,4,-1
0 4291 m 1,8,-1
 0 4352 l 1,9,-1
 671 4352 l 1,10,-1
 671 4291 l 1,11,-1
 0 4291 l 1,8,-1
488 62 m 1,12,-1
 488 4290 l 1,13,-1
 549 4290 l 1,14,-1
 549 62 l 1,15,-1
 488 62 l 1,12,-1
0 62 m 1,16,-1
 0 4290 l 1,17,-1
 122 4290 l 1,18,-1
 122 62 l 1,19,-1
 0 62 l 1,16,-1
EndSplineSet
EndChar

StartChar: STARTB
Encoding: 136 224 107
Width: 671
GlyphClass: 1
Flags: W
LayerCount: 2
Fore
SplineSet
183 62 m 1,0,-1
 183 4290 l 1,1,-1
 244 4290 l 1,2,-1
 244 62 l 1,3,-1
 183 62 l 1,0,-1
0 0 m 1,4,-1
 0 61 l 1,5,-1
 671 61 l 1,6,-1
 671 0 l 1,7,-1
 0 0 l 1,4,-1
0 4291 m 1,8,-1
 0 4352 l 1,9,-1
 671 4352 l 1,10,-1
 671 4291 l 1,11,-1
 0 4291 l 1,8,-1
366 62 m 1,12,-1
 366 4290 l 1,13,-1
 427 4290 l 1,14,-1
 427 62 l 1,15,-1
 366 62 l 1,12,-1
0 62 m 1,16,-1
 0 4290 l 1,17,-1
 122 4290 l 1,18,-1
 122 62 l 1,19,-1
 0 62 l 1,16,-1
EndSplineSet
EndChar

StartChar: STARTC
Encoding: 137 226 108
Width: 671
GlyphClass: 1
Flags: W
LayerCount: 2
Fore
SplineSet
183 62 m 1,0,-1
 183 4290 l 1,1,-1
 244 4290 l 1,2,-1
 244 62 l 1,3,-1
 183 62 l 1,0,-1
0 0 m 1,4,-1
 0 61 l 1,5,-1
 671 61 l 1,6,-1
 671 0 l 1,7,-1
 0 0 l 1,4,-1
0 4291 m 1,8,-1
 0 4352 l 1,9,-1
 671 4352 l 1,10,-1
 671 4291 l 1,11,-1
 0 4291 l 1,8,-1
366 62 m 1,12,-1
 366 4290 l 1,13,-1
 549 4290 l 1,14,-1
 549 62 l 1,15,-1
 366 62 l 1,12,-1
0 62 m 1,16,-1
 0 4290 l 1,17,-1
 122 4290 l 1,18,-1
 122 62 l 1,19,-1
 0 62 l 1,16,-1
EndSplineSet
EndChar

StartChar: STOP
Encoding: 138 228 109
Width: 793
GlyphClass: 1
Flags: W
LayerCount: 2
Fore
SplineSet
0 62 m 1,0,-1
 0 4290 l 1,1,-1
 122 4290 l 1,2,-1
 122 62 l 1,3,-1
 0 62 l 1,0,-1
0 0 m 1,4,-1
 0 61 l 1,5,-1
 793 61 l 1,6,-1
 793 0 l 1,7,-1
 0 0 l 1,4,-1
0 4291 m 1,8,-1
 0 4352 l 1,9,-1
 793 4352 l 1,10,-1
 793 4291 l 1,11,-1
 0 4291 l 1,8,-1
305 62 m 1,12,-1
 305 4290 l 1,13,-1
 488 4290 l 1,14,-1
 488 62 l 1,15,-1
 305 62 l 1,12,-1
549 62 m 1,16,-1
 549 4290 l 1,17,-1
 610 4290 l 1,18,-1
 610 62 l 1,19,-1
 549 62 l 1,16,-1
671 62 m 1,20,-1
 671 4290 l 1,21,-1
 793 4290 l 1,22,-1
 793 62 l 1,23,-1
 671 62 l 1,20,-1
EndSplineSet
EndChar
